<?xml version="1.0" standalone="no"?>
<!DOCTYPE svg PUBLIC "-//W3C//DTD SVG 1.1//EN" "http://www.w3.org/Graphics/SVG/1.1/DTD/svg11.dtd" >
<svg>
<metadata>
Created by FontForge 20090914 at Mon May 24 08:46:28 2021
 By www-data
Copyright (c) 1992 Image Club Graphics, Inc.
</metadata>
<defs>
<font id="L&CHairlineHQ" horiz-adv-x="382" >
  <font-face 
    font-family="L&C Hairline HQ"
    font-weight="500"
    font-stretch="normal"
    units-per-em="572"
    panose-1="0 0 0 0 0 0 0 0 0 0"
    ascent="457"
    descent="-115"
    x-height="292"
    cap-height="454"
    bbox="-41 -140 694 586.999"
    underline-thickness="20"
    underline-position="-123"
    unicode-range="U+001D-U+EA0A"
  />
<missing-glyph horiz-adv-x="454" 
d="M28 0v454h398v-454h-398zM398 28v398h-342v-398h342z" />
    <glyph glyph-name=".notdef" horiz-adv-x="454" 
d="M28 0v454h398v-454h-398zM398 28v398h-342v-398h342z" />
    <glyph glyph-name="NULL" horiz-adv-x="0" 
 />
    <glyph glyph-name="NULL" unicode="&#x141;" horiz-adv-x="0" 
 />
    <glyph glyph-name="NULL" unicode="&#xfd;" horiz-adv-x="0" 
 />
    <glyph glyph-name="NULL" unicode="&#xd7;" horiz-adv-x="0" 
 />
    <glyph glyph-name="NULL" horiz-adv-x="0" 
 />
    <glyph glyph-name="nonmarkingreturn" unicode=" " horiz-adv-x="168" 
 />
    <glyph glyph-name="exclam" unicode="!" horiz-adv-x="87" 
d="M53 52h-14v426h14v-426zM53 -1h-14v21h14v-21z" />
    <glyph glyph-name="quotedbl" unicode="&#x22;" horiz-adv-x="110" 
d="M80 380h-14v98h14v-98zM44 380h-14v98h14v-98z" />
    <glyph glyph-name="numbersign" unicode="#" horiz-adv-x="292" 
d="M261 298h-68v-89h-14v89h-64v-89h-14v89h-72v14h72v64h-72v14h72v88h14v-88h64v88h14v-88h68v-14h-68v-64h68v-14zM179 312v64h-64v-64h64z" />
    <glyph glyph-name="dollar" unicode="$" horiz-adv-x="294" 
d="M265 118c0 -26.667 -8.33203 -50.9971 -24.999 -72.9971s-37.667 -36.333 -63 -43v-72h-14v70l-14 -1h-9v-69h-14v71c-24.667 5.33301 -46.167 16.666 -64.5 33.999s-28.833 37.333 -31.5 60l-1 7l14 2l1 -7c3.33301 -18.667 12.666 -35.667 27.999 -51
s33.333 -25.333 54 -30v255c-24 18 -41.667 34.333 -53 49c-16 20.667 -24 43.667 -24 69c0 23.333 7.33301 44.333 22 63s33 31 55 37v57h14v-55l11 1l12 -1v55h14v-58c18 -4.66699 33.5 -12.834 46.5 -24.501s22.167 -25.834 27.5 -42.501l1 -6l-14 -4l-1 6
c-9.33301 28.667 -29.333 47.667 -60 57v-224c31.333 -24.667 52.333 -43.667 63 -57c16.667 -21.333 25 -46.333 25 -75zM126.001 289.003l-1 185c-18 -5.33301 -32.833 -15.833 -44.5 -31.5s-17.5 -33.5 -17.5 -53.5s6 -38.667 18 -56c9.33301 -13.333 24.333 -28 45 -44z
M163.001 261.003v215l-12 2l-12 -1l1 -200l18 -12zM163.001 14.0029v229c-1.33301 0 -3.33301 1.66699 -6 5s-5 5 -7 5l-10 7v-246l9 -1zM251.001 118.003c0 24 -6.66699 45.332 -20 63.999c-10 13.333 -28 30.333 -54 51v-216c21.333 6.66699 39 19.334 53 38.001
s21 39.667 21 63z" />
    <glyph glyph-name="percent" unicode="%" horiz-adv-x="394" 
d="M336 466l-267 -464.999l-12 6l261 455h-147c35.333 -17.333 53 -46 53 -86c0 -28.667 -10 -53.334 -30 -74.001s-44.333 -31 -73 -31c-27.333 0 -51 10.333 -71 31s-30 45 -30 73c0 27.333 9.66699 51 29 71s43 30 71 30h210c7.33301 0 9.33301 -3.33301 6 -10z
M274 -0.999023c-33.333 0 -59.333 10.5 -78 31.5s-28 45.833 -28 74.5c0 28 9.16699 52.333 27.5 73s43.833 31 76.5 31c33.333 0 59.333 -10.5 78 -31.5s28 -45.833 28 -74.5c0 -28 -8.66699 -51.667 -26 -71c-19.333 -22 -45.333 -33 -78 -33zM210 376.001
c0 24 -9 44.334 -27 61.001s-39 25 -63 25c-23.333 0 -43.5 -8.5 -60.5 -25.5s-25.5 -37.5 -25.5 -61.5c0 -24.667 8.5 -45.834 25.5 -63.501s37.5 -26.5 61.5 -26.5c24.667 0 45.667 9 63 27s26 39.333 26 64zM274 13.002c28 0 49.833 8.83301 65.5 26.5
s23.5 38.834 23.5 63.501c0 25.333 -7.33301 46.333 -22 63c-16.667 19.333 -39.667 29 -69 29c-28 0 -49.833 -8.83301 -65.5 -26.5s-23.5 -38.834 -23.5 -63.501c0 -25.333 7.83301 -47 23.5 -65s38.167 -27 67.5 -27z" />
    <glyph glyph-name="ampersand" unicode="&#x26;" horiz-adv-x="445" 
d="M422 5l-10.001 -10.002l-76 83c-12.667 -26 -32.167 -47.333 -58.5 -64s-55.166 -25 -86.499 -25c-44 0 -81.667 16 -113 48s-47 70 -47 114c0 33.333 10.333 64 31 92c12.667 17.333 28.667 32.333 48 45c-12.667 10.667 -22.667 23.834 -30 39.501s-11 31.167 -11 46.5
c0 30 10.667 55.667 32 77s47 32 77 32c28.667 0 54.167 -9.83301 76.5 -29.5s33.5 -44.167 33.5 -73.5v-7h-14v7c0 25.333 -9.5 46.5 -28.5 63.5s-41.5 25.5 -67.5 25.5s-48.333 -9.33301 -67 -28s-28 -41 -28 -67c0 -21.333 6.33301 -40.333 19 -57
c7.33301 -9.33301 15.666 -17 24.999 -23c2 0 3 -2 3 -6c-1.33301 -4 -2.66602 -6 -3.99902 -6c-18 -12.667 -31.333 -23.667 -40 -33c-27.333 -29.333 -41 -62 -41 -98c0 -40 14.333 -74.667 43 -104s63 -44 103 -44c30 0 56.833 7.83301 80.5 23.5
s41.5 35.834 53.5 60.501l-125 138l10 10z" />
    <glyph glyph-name="quotesingle" unicode="'" horiz-adv-x="62" 
d="M36 379h-14v98h14v-98z" />
    <glyph glyph-name="parenleft" unicode="(" horiz-adv-x="136" 
d="M110 -21l-12 -5.99902l-3 6c-23.333 42.667 -39.666 82.667 -48.999 120s-14 80.666 -14 129.999s4.66699 92 14 128s25.666 75.667 48.999 119l3 6l12 -6l-3 -6c-22.667 -43.333 -38.5 -82.5 -47.5 -117.5s-13.5 -76.167 -13.5 -123.5c0 -49.333 4.16699 -91 12.5 -125
s24.5 -73.667 48.5 -119z" />
    <glyph glyph-name="parenright" unicode=")" horiz-adv-x="137" 
d="M107 225c0 -49.333 -4.66699 -92.001 -14 -128.001s-25.666 -75.667 -48.999 -119l-3 -6l-12 6l3 6c22.667 43.333 38.5 82.5 47.5 117.5s13.5 76.167 13.5 123.5c0 49.333 -4.16699 91 -12.5 125s-24.5 73.667 -48.5 119l-3 6l12 6l3 -6
c23.333 -42.667 39.666 -82.667 48.999 -120s14 -80.666 14 -129.999z" />
    <glyph glyph-name="asterisk" unicode="*" horiz-adv-x="236" 
d="M198 340c-4 -4 -7.66406 -5.99805 -10.9971 -5.99805c-2.66699 0 -4.66699 0.333008 -6 1c-2.66699 2 -4.33398 3.33301 -5.00098 4c-4 2.66699 -9.66699 8.33398 -17 17.001c-4.66699 5.33301 -8.33398 9 -11.001 11l-16 11l-8 -2v-16
c0 -4.66699 1.66699 -11.334 5 -20.001s5 -15.334 5 -20.001c-1.33301 -14.667 -5.66602 -22 -12.999 -22c-4.66699 0 -8.33398 2.66699 -11.001 8s-4 11 -4 17c0 4.66699 1.83301 11 5.5 19s5.5 14 5.5 18l-1 15l-7 3l-13 -9l-30 -29c-4 -1.33301 -7.66699 -2 -11 -2
c-7.33301 0 -11.666 2 -12.999 6c-1.33301 3.33301 -0.666016 7.16602 2.00098 11.499s5.66699 7.5 9 9.5c3.33301 2.66699 9.66602 4.66699 18.999 6s16 3 20 5l14 8l1 8l-17 9c-2.66699 1.33301 -10 3.16602 -22 5.49902s-19.667 5.33301 -23 9s-5 6.83398 -5 9.50098
c0 2 1.33301 5.33301 4 10c1.33301 2.66699 6.66602 3.33398 15.999 2.00098c5.33301 -2 11.166 -6.66699 17.499 -14s11.5 -12 15.5 -14l18 -9l6 1v15c0 5.33301 -1.83301 13 -5.5 23s-5.5 17 -5.5 21c0 3.33301 0.666992 6.33301 2 9c2.66699 5.33301 6.33398 8 11.001 8
c10 0 15 -6.33301 15 -19c0 -4 -1.83301 -11 -5.5 -21s-5.5 -17 -5.5 -21l1 -14l6 -4l15 6c4 2 8.66699 7 14 15s10.666 13.167 15.999 15.5s10.333 3.5 15 3.5c3.33301 0 6 -1.33301 8 -4c2 -4 2.33301 -8.5 1 -13.5s-4.33301 -8.66699 -9 -11s-12.167 -4.33301 -22.5 -6
s-17.166 -3.16699 -20.499 -4.5l-12 -6v-8l17 -11c2 -1.33301 8.5 -3 19.5 -5s18.5 -5 22.5 -9c7.33301 -8.66699 8.66602 -15.334 3.99902 -20.001z" />
    <glyph glyph-name="plus" unicode="+" horiz-adv-x="376" 
d="M346 166h-150v-166h-14v166h-154v14h154v154h14v-154h150v-14z" />
    <glyph glyph-name="comma" unicode="," horiz-adv-x="87" 
d="M37 -38l-14 4l16 44v12h14v-14z" />
    <glyph glyph-name="hyphen" unicode="-" horiz-adv-x="168" 
d="M140 156h-107v14h107v-14z" />
    <glyph glyph-name="period" unicode="." horiz-adv-x="87" 
d="M53 0h-14v21h14v-21z" />
    <glyph glyph-name="slash" unicode="/" horiz-adv-x="339" 
d="M319 492l-285 -512l-12 6l285 512z" />
    <glyph glyph-name="zero" unicode="0" horiz-adv-x="545" 
d="M273 0c-76.667 0 -137.334 25.667 -182.001 77c-40.667 46.667 -61 103.334 -61 170.001c0 67.333 20 123.666 60 168.999c44.667 50.667 105.334 76 182.001 76s137.334 -25.667 182.001 -77c40.667 -46.667 61 -103.334 61 -170.001
c0 -67.333 -20 -123.666 -60 -168.999c-44.667 -50.667 -105.334 -76 -182.001 -76zM273 14c72 0 129 24 171 72c38 43.333 57 96.666 57 159.999c0 62.667 -19 115.667 -57 159c-42.667 48.667 -100 73 -172 73s-129 -24 -171 -72c-38 -43.333 -57 -96.666 -57 -159.999
c0 -62.667 19 -115.667 57 -159c42.667 -48.667 100 -73 172 -73z" />
    <glyph glyph-name="one" unicode="1" horiz-adv-x="119" 
d="M89 0h-14v440h-42v14h49c4.66699 0 7 -2.33301 7 -7v-447z" />
    <glyph glyph-name="two" unicode="2" horiz-adv-x="348" 
d="M319 323c0 -28.667 -7.33203 -54.335 -21.999 -77.002c-4.66699 -7.33301 -12.334 -16 -23.001 -26l-194 -206h235v-14h-251c-3.33301 0 -5 4 -5 12l206 219c9.33301 8.66699 16 16.334 20 23.001c13.333 20.667 20 43.667 20 69c0 35.333 -13 66 -39 92s-57 39 -93 39
c-34 0 -63.667 -11.667 -89 -35s-38 -51.666 -38 -84.999v-7h-14v7c0 37.333 14 69 42 95s61 39 99 39c40 0 74.333 -14.333 103 -43s43 -62.667 43 -102z" />
    <glyph glyph-name="three" unicode="3" horiz-adv-x="329" 
d="M299 136c0 -37.333 -12.998 -69.335 -38.998 -96.002s-57.667 -40 -95 -40c-34 0 -63.833 11.333 -89.5 34s-40.167 51 -43.5 85v7l14 2v-7c3.33301 -31.333 16 -57 38 -77s49 -30 81 -30c33.333 0 61.666 12 84.999 36s35 52.667 35 86c0 48.667 -19.333 83 -58 103
c-12.667 6 -32.334 11 -59.001 15c-2.66699 0 -4.33398 2.33301 -5.00098 7s0.666016 7 3.99902 7c25.333 2.66699 46.5 13.834 63.5 33.501s25.5 42.834 25.5 69.501c0 28 -10.5 52.167 -31.5 72.5s-45.833 30.5 -74.5 30.5c-26 0 -48.167 -7.83301 -66.5 -23.5
s-29.5 -36.167 -33.5 -61.5l-1 -7l-14 2l1 7c4.66699 28 17.834 51.167 39.501 69.5s46.5 27.5 74.5 27.5c32.667 0 60.834 -11.5 84.501 -34.5s35.5 -50.5 35.5 -82.5c0 -24 -6.16699 -45.5 -18.5 -64.5s-29.5 -33.5 -51.5 -43.5c26 -6.66699 47 -18 63 -34
c24 -23.333 36 -54.333 36 -93z" />
    <glyph glyph-name="four" unicode="4" horiz-adv-x="380" 
d="M350 78h-54v-78h-14v78h-243c-4 0 -6 3.66699 -6 11l250 374c0 1.33301 1.33301 2 4 2c6 0 9 -2 9 -6v-367h54v-14zM282 92v344l-230 -344h230z" />
    <glyph glyph-name="five" unicode="5" horiz-adv-x="361" 
d="M332 155c0 -42 -15 -78.3311 -45 -108.998s-66 -46 -108 -46c-32.667 0 -62.667 9.66699 -90 29s-46.333 43.333 -57 72l-2 6l14 4l2 -6c8.66699 -26 25.334 -47.667 50.001 -65s52.334 -26 83.001 -26c38 0 70.667 14 98 42s41 61 41 99c0 38.667 -13.667 72 -41 100
s-60.666 42 -99.999 42c-12.667 0 -22.834 -0.833008 -30.501 -2.5s-17.834 -4.83398 -30.501 -9.50098c-6.66699 0 -10 2.66699 -10 8l45 179c3.33301 3.33301 5.66602 5 6.99902 5h156v-14h-150l-41 -161c6.66699 2 14.167 4 22.5 6s18.833 3 31.5 3
c42 0 78.333 -15.333 109 -46s46 -67.334 46 -110.001z" />
    <glyph glyph-name="six" unicode="6" horiz-adv-x="376" 
d="M343 156c0 -42.667 -15 -79.332 -45 -109.999s-66.333 -46 -109 -46s-79.667 15.333 -111 46s-47 67.667 -47 111c0 19.333 3.33301 37.666 10 54.999c2 6 10 22.333 24 49l113 219l12 -6l-100 -194c12 10 26.167 18.167 42.5 24.5s33.833 9.5 52.5 9.5
c43.333 0 80.5 -15.5 111.5 -46.5s46.5 -68.167 46.5 -111.5zM329 156.002c0 39.333 -14.168 73.168 -42.501 101.501s-62.166 42.5 -101.499 42.5c-45.333 0 -81.333 -18 -108 -54c-21.333 -28.667 -32 -58.334 -32 -89.001c0 -39.333 14 -73 42 -101s62 -42 102 -42
c38.667 0 71.667 14 99 42s41 61.333 41 100z" />
    <glyph glyph-name="seven" unicode="7" horiz-adv-x="296" 
d="M264 445l-205 -446l-12 6l200 436h-221v14h232c4 0 6 -3.33301 6 -10z" />
    <glyph glyph-name="eight" unicode="8" horiz-adv-x="337" 
d="M212 272c30 -9.33301 53.167 -26.6689 69.5 -52.002s24.5 -53.333 24.5 -84c0 -36.667 -11.333 -67.667 -34 -93c-25.333 -28.667 -59.666 -43 -102.999 -43c-44.667 0 -80 15 -106 45c-23.333 26.667 -35 59.334 -35 98.001c0 30 7.66699 56.833 23 80.5
s37.666 39.834 66.999 48.501c-22.667 8.66699 -40.167 23 -52.5 43s-18.5 42.333 -18.5 67c0 30.667 9.33301 56.667 28 78c21.333 24 50 36 86 36c37.333 0 67 -12.333 89 -37c20 -22.667 30 -50 30 -82c0 -23.333 -5.83301 -44.5 -17.5 -63.5s-28.5 -32.833 -50.5 -41.5z
M166 277.997c31.333 0 55.666 9.66699 72.999 29s26 42.666 26 69.999c0 28 -8.66699 52 -26 72c-19.333 22 -45.333 33 -78 33c-31.333 0 -55.666 -9.66699 -72.999 -29s-26 -42.666 -26 -69.999c0 -28 9.16699 -52.5 27.5 -73.5s43.833 -31.5 76.5 -31.5zM169 13.9971
c38.667 0 68.834 12.167 90.501 36.5s32.5 53.5 32.5 87.5s-10.667 63 -32 87c-23.333 26.667 -55 40 -95 40c-38.667 0 -68.834 -12.167 -90.501 -36.5s-32.5 -53.5 -32.5 -87.5s11.167 -63.667 33.5 -89s53.5 -38 93.5 -38z" />
    <glyph glyph-name="nine" unicode="9" horiz-adv-x="374" 
d="M345 319c0 -18 -2.33301 -34.334 -7 -49.001c-0.666992 -3.33301 -7 -18.666 -19 -45.999l-99 -225l-12 6l84 192c-29.333 -24.667 -64 -37 -104 -37c-43.333 0 -80.5 15.5 -111.5 46.5s-46.5 68.167 -46.5 111.5s15.667 80 47 110s68.666 45 111.999 45
c42.667 0 79.334 -15 110.001 -45s46 -66.333 46 -109zM331 318.999c0 38.667 -13.999 71.665 -41.999 98.998s-61.333 41 -100 41c-39.333 0 -73.333 -13.667 -102 -41s-43 -60.666 -43 -99.999s14.167 -73.166 42.5 -101.499s62.166 -42.5 101.499 -42.5
c41.333 0 75.5 13.5 102.5 40.5s40.5 61.833 40.5 104.5z" />
    <glyph glyph-name="colon" unicode=":" horiz-adv-x="87" 
d="M50 126h-14v21h14v-21zM50 0h-14v21h14v-21z" />
    <glyph glyph-name="semicolon" unicode=";" horiz-adv-x="87" 
d="M50 126h-14v21h14v-21zM34 -39l-14 4l16 44v12h14v-14z" />
    <glyph glyph-name="less" unicode="&#x3c;" horiz-adv-x="275" 
d="M247 4l-8 -10l-206 166v10l200 166l8 -10l-194 -161z" />
    <glyph glyph-name="equal" unicode="=" horiz-adv-x="284" 
d="M252 195h-222v14h222v-14zM252 123h-222v14h222v-14z" />
    <glyph glyph-name="greater" unicode="&#x3e;" horiz-adv-x="273" 
d="M243 160l-206 -166l-8 10l200 161l-194 161l8 10l200 -166v-10z" />
    <glyph glyph-name="question" unicode="?" horiz-adv-x="332" 
d="M300 321c0 -26 -6.33496 -49.501 -19.002 -70.501s-30.334 -39.5 -53.001 -55.5c-34.667 -24 -56 -39.667 -64 -47c-20 -18 -30 -36 -30 -54c0 -8 2.33301 -17.333 7 -28c0.666992 -1.33301 2 -3.66602 4 -6.99902l-12 -8c-2.66699 6 -4.66699 10.667 -6 14
c-4.66699 12 -7 21.667 -7 29c0 26 16 51.333 48 76c24 16.667 41.333 29 52 37c20.667 14.667 36.834 31.334 48.501 50.001s17.5 40 17.5 64c0 37.333 -13 68.666 -39 93.999s-57.333 38 -94 38c-28.667 0 -55.667 -10 -81 -30c-8 -6.66699 -17.667 -17 -29 -31l-12 8
c12.667 14.667 23.334 25.667 32.001 33c28.667 22.667 58.667 34 90 34c40.667 0 75.334 -14 104.001 -42s43 -62.667 43 -104zM142.998 0.999023h-14v21h14v-21z" />
    <glyph glyph-name="at" unicode="@" horiz-adv-x="536" 
d="M507 260c0 -33.333 -6.83398 -62.999 -20.501 -88.999s-34.167 -49.667 -61.5 -71c-7.33301 0 -11 2 -11 6v69c-10.667 -26 -28.834 -47 -54.501 -63s-55.5 -24 -89.5 -24c-50.667 0 -91 17 -121 51c-27.333 31.333 -41 68.666 -41 111.999c0 42.667 13 78.667 39 108
c28.667 32.667 68.334 49 119.001 49c45.333 0 82 -13 110 -39c34.667 -32 52 -70.333 52 -115v-133c21.333 18.667 37.5 39.334 48.5 62.001s16.5 48.334 16.5 77.001c0 59.333 -22 109.666 -66 150.999s-96.333 62 -157 62c-62 0 -115.833 -21.833 -161.5 -65.5
s-68.5 -96.167 -68.5 -157.5c0 -63.333 22.5 -117.833 67.5 -163.5s98.833 -68.5 161.5 -68.5c32 0 59 4.33301 81 13s45 24 69 46l5 4l10 -10l-5 -4c-46 -42 -99.333 -63 -160 -63c-67.333 0 -124.666 24 -171.999 72s-71 106 -71 174
c0 65.333 24.167 121.166 72.5 167.499s105.5 69.5 171.5 69.5c64 0 119.5 -21.833 166.5 -65.5s70.5 -97.5 70.5 -161.5zM413.999 251.001c0 36.667 -12 68.667 -36 96c-28 31.333 -65.333 47 -112 47c-45.333 0 -81.333 -15 -108 -45c-24 -27.333 -36 -60.333 -36 -99
c0 -40 12.333 -74 37 -102c27.333 -30.667 64.333 -46 111 -46c40 0 73.333 12.667 100 38c29.333 28 44 65 44 111z" />
    <glyph glyph-name="A" unicode="A" horiz-adv-x="350" 
d="M320 4l-14.001 -4l-63 214h-131l-62 -214l-14 4l134 461c0 2 2 3 6 3c4.66699 0 7.33398 -1 8.00098 -3zM238.999 228l-62 210l-61 -210h123z" />
    <glyph glyph-name="B" unicode="B" horiz-adv-x="273" 
d="M242 119c0 -38 -12.499 -67.335 -37.499 -88.002s-55.833 -31 -92.5 -31h-77c-4.66699 0 -7 2.33301 -7 7v443c0 4.66699 2.33301 7 7 7h85c26.667 0 51 -10 73 -30s33 -44.667 33 -74c0 -23.333 -7 -45.666 -21 -66.999s-31.333 -35.666 -52 -42.999
c25.333 -8 45.666 -21.333 60.999 -40c18.667 -22.667 28 -50.667 28 -84zM212.001 352.998c0 24.667 -9.66699 45.833 -29 63.5s-40.333 26.5 -63 26.5h-78v-194h71c26 0 49 10.667 69 32s30 45.333 30 72zM113.001 234.997l-71 -0.000976562v-221h70
c34 0 61.833 8.83301 83.5 26.5s32.5 43.834 32.5 78.501c0 43.333 -16 75.333 -48 96c-20.667 13.333 -41.667 20 -63 20h-4z" />
    <glyph glyph-name="C" unicode="C" horiz-adv-x="469" 
d="M443 54l-5 -4.00098c-46 -39.333 -99.333 -59 -160 -59c-67.333 0 -125.333 24.333 -174 73s-73 107 -73 175c0 66.667 24.333 123.667 73 171s106.667 71 174 71c30 0 58.333 -5 85 -15c22 -8 44 -20 66 -36l5 -3l-8 -12l-5 3c-18.667 14 -40.334 25.667 -65.001 35
s-50.667 14 -78 14c-62.667 0 -117.167 -22.5 -163.5 -67.5s-69.5 -98.5 -69.5 -160.5c0 -63.333 22.833 -118.166 68.5 -164.499s100.5 -69.5 164.5 -69.5c56.667 0 107.334 18.333 152.001 55l5 4z" />
    <glyph glyph-name="D" unicode="D" horiz-adv-x="322" 
d="M293 230c0 -67.333 -20.8311 -122.5 -62.498 -165.5s-97.834 -64.5 -168.501 -64.5h-26c-4.66699 -0 -7 2.33301 -7 7v440c0 4.66699 2.33301 7 7 7h38c55.333 0 104.666 -20.333 147.999 -61c47.333 -44 71 -98.333 71 -163zM279.002 230
c0 59.333 -22.333 110.001 -67 152.001c-41.333 38.667 -87.333 58 -138 58h-31v-426h19c67.333 0 120.333 19.667 159 59s58 91.666 58 156.999z" />
    <glyph glyph-name="E" unicode="E" horiz-adv-x="237" 
d="M212 0h-175c-4.66699 -0 -7 2.33301 -7 7v440c0 4.66699 2.33301 7 7 7h172v-14h-165v-201h163v-14h-163v-211h168v-14z" />
    <glyph glyph-name="F" unicode="F" horiz-adv-x="224" 
d="M189 440h-145v-201h139v-14h-139v-225h-14v447c0 4.66699 2.33301 7 7 7h152v-14z" />
    <glyph glyph-name="G" unicode="G" horiz-adv-x="565" 
d="M537 243c0 -68 -24.668 -127 -74.001 -177s-108.333 -75 -177 -75c-70 0 -130 24.667 -180 74s-75 109 -75 179c0 69.333 25 128.666 75 177.999s109.667 74 179 74c57.333 0 109 -17.667 155 -53l5 -3l-8 -12l-5 3c-44 34 -93 51 -147 51
c-65.333 0 -121.666 -23.333 -168.999 -70s-71 -102.667 -71 -168c0 -66 23.667 -122.333 71 -169s104 -70 170 -70c64 0 119.5 22.833 166.5 68.5s70.5 99.834 70.5 162.501h-213v14h220c4.66699 0 7 -2.33301 7 -7z" />
    <glyph glyph-name="H" unicode="H" horiz-adv-x="322" 
d="M295 0h-14v225h-235v-225h-14v454h14v-215h235v215h14v-454z" />
    <glyph glyph-name="I" unicode="I" horiz-adv-x="120" 
d="M68 0h-14v454h14v-454z" />
    <glyph glyph-name="J" unicode="J" horiz-adv-x="171" 
d="M140 97c0 -16.667 -2.16797 -31.335 -6.50098 -44.002s-12.166 -24.667 -23.499 -36c-26 -26 -53.333 -39 -82 -39h-7v14h7c24.667 0 48.667 11.667 72 35c10.667 10.667 17.667 20.834 21 30.501s5 22.834 5 39.501v358h14v-358z" />
    <glyph glyph-name="K" unicode="K" horiz-adv-x="310" 
d="M280 9l-10 -10l-227 223v-222h-14v454h14v-204l203 206l10 -10l-207 -210z" />
    <glyph glyph-name="L" unicode="L" horiz-adv-x="226" 
d="M199 0h-161c-4.66699 -0 -7 2.33301 -7 7v447h14v-440h154v-14z" />
    <glyph glyph-name="M" unicode="M" horiz-adv-x="531" 
d="M504 2l-14 -2l-83 434l-135 -322c0 -3.33301 -2.66699 -4.33301 -8 -3c-2.66699 0.666992 -4 1.66699 -4 3l-141 322l-75 -434l-14 2l79 457c0 2.66699 2 4.33398 6 5.00098c4.66699 0.666992 7 -0.333008 7 -3l144 -329l138 329c0 2.66699 2 3.66699 6 3
c4.66699 -0.666992 7 -2.33398 7 -5.00098z" />
    <glyph glyph-name="N" unicode="N" horiz-adv-x="342" 
d="M312 1c0 -3.33301 -2.66699 -5.33301 -8 -6c-3.33301 -0.666992 -5 0 -5 2l-253 433v-430h-14v456c0 3.33301 2.66699 5.33301 8 6c3.33301 0.666992 5 0 5 -2l253 -433v427h14v-453z" />
    <glyph glyph-name="O" unicode="O" horiz-adv-x="553" 
d="M280 -9c-78.667 0 -141 26 -187 78c-42 47.333 -63 105 -63 173c0 66.667 20.333 123 61 169c45.333 51.333 107 77 185 77c78.667 0 141 -26 187 -78c42 -47.333 63 -105 63 -173c0 -66.667 -20.333 -123 -61 -169c-45.333 -51.333 -107 -77 -185 -77zM280 5
c74 0 132.333 24 175 72c38.667 43.333 58 96.666 58 159.999c0 64.667 -19.667 119 -59 163c-44 49.333 -103.333 74 -178 74c-74 0 -132.333 -24 -175 -72c-38.667 -43.333 -58 -96.666 -58 -159.999c0 -64.667 19.667 -119 59 -163c44 -49.333 103.333 -74 178 -74z" />
    <glyph glyph-name="P" unicode="P" horiz-adv-x="231" 
d="M201 335c0 -32.667 -11 -61.333 -33 -86s-49.333 -37 -82 -37h-44v-212h-14v447c0 4.66699 2.33301 7 7 7h30c36 0 67.667 -11.167 95 -33.5s41 -50.833 41 -85.5zM187 335.001c0 30 -12.167 55 -36.5 75s-52.833 30 -85.5 30h-23v-214h44c28 0 51.833 10.833 71.5 32.5
s29.5 47.167 29.5 76.5z" />
    <glyph glyph-name="Q" unicode="Q" horiz-adv-x="555" 
d="M407 -29l-6.99805 -2c-10.667 -3.33301 -20.167 -6.16602 -28.5 -8.49902s-16.833 -3.5 -25.5 -3.5c-28.667 0 -59.334 7.33301 -92.001 22l-60 26c-6 2.66699 -15 4.66699 -27 6s-20 2 -24 2c-8.66699 0 -17 -2 -25 -6l-6 -3l-8 12l6 3c4.66699 2.66699 10 4.66699 16 6
s12.333 2 19 2c-36.667 21.333 -64.667 51.333 -84 90s-29 80.334 -29 125.001c0 67.333 20 123.666 60 168.999c45.333 51.333 107 77 185 77c78.667 0 141 -26 187 -78c42 -47.333 63 -105 63 -173c0 -66.667 -20.333 -123 -61 -169c-45.333 -51.333 -107 -77 -185 -77
l-23 1c15.333 -6.66699 30.333 -11.834 45 -15.501s29 -5.5 43 -5.5c7.33301 0 15.166 1.33301 23.499 4l24.5 8l7 2zM281.002 5c74 0 132.333 24 175 72c38.667 43.333 58 97 58 161c0 64.667 -19.667 119 -59 163c-44 49.333 -103.333 74 -178 74
c-70.667 0 -127.667 -24 -171 -72c-40.667 -44.667 -61 -98.667 -61 -162c0 -70 22.5 -126.833 67.5 -170.5s101.167 -65.5 168.5 -65.5z" />
    <glyph glyph-name="R" unicode="R" horiz-adv-x="246" 
d="M213 6l-12 -7.99902l-158 207v-205h-14v447c0 4.66699 2.33301 7 7 7h39c40 0 71.833 -12.5 95.5 -37.5s35.5 -55.5 35.5 -91.5c0 -32.667 -11.5 -60.834 -34.5 -84.501s-50.5 -35.5 -82.5 -35.5h-27zM192 325.001c0 32.667 -10.332 60 -30.999 82s-49.334 33 -86.001 33
h-32v-221h46c27.333 0 51.333 10.667 72 32s31 46 31 74z" />
    <glyph glyph-name="S" unicode="S" horiz-adv-x="298" 
d="M267 116c0 -34 -11.666 -63.334 -34.999 -88.001s-52 -37 -86 -37c-28 0 -53 7.33301 -75 22c-24.667 16.667 -39.334 38.667 -44.001 66l-1 7l14 2l1 -7c4 -22.667 16.333 -41 37 -55s43.334 -21 68.001 -21c29.333 0 54.5 10.833 75.5 32.5s31.5 47.834 31.5 78.501
c0 24 -6.33301 45 -19 63c-7.33301 10.667 -34.666 33.667 -81.999 69c-37.333 28.667 -60.666 48 -69.999 58c-22 24 -33 50.333 -33 79c0 27.333 9.33301 50.666 28 69.999s42 29 70 29c21.333 0 40.166 -4.66699 56.499 -14s28.166 -23 35.499 -41l2 -6l-14 -4l-2 6
c-11.333 30 -37.333 45 -78 45c-22.667 0 -42.334 -8.33301 -59.001 -25s-25 -36.667 -25 -60c0 -18.667 5.5 -36.167 16.5 -52.5s38 -41 81 -74s66.167 -51.167 69.5 -54.5c24.667 -25.333 37 -54.666 37 -87.999z" />
    <glyph glyph-name="T" unicode="T" horiz-adv-x="289" 
d="M257 440h-107v-440h-14v440h-104v14h225v-14z" />
    <glyph glyph-name="U" unicode="U" horiz-adv-x="318" 
d="M290 126c0 -44.667 -13 -79.001 -39 -103.001c-23.333 -21.333 -53.333 -32 -90 -32c-38.667 0 -68.667 9 -90 27c-26.667 22.667 -40 60 -40 112v338h14v-338c0 -48.667 11.333 -82.667 34 -102c18 -15.333 45.333 -23 82 -23c34.667 0 61.667 8.66699 81 26
c22.667 20.667 34 52.334 34 95.001v342h14v-342z" />
    <glyph glyph-name="V" unicode="V" horiz-adv-x="340" 
d="M315 451l-130 -465c0 -2.66699 -2.33301 -4 -7 -4s-7 1.33301 -7 4l-139 465l14 4l132 -441l123 441z" />
    <glyph glyph-name="W" unicode="W" horiz-adv-x="576" 
d="M546 442l-145 -455c0 -2.66699 -2.33301 -4 -7 -4s-7 1.33301 -7 4l-97 302l-86 -301c0 -2.66699 -2.33301 -4 -7 -4s-7 1.33301 -7 4l-158 454l14 4l150 -432l87 302c0 2.66699 2.33301 4 7 4s7 -1.33301 7 -4l97 -303l138 433z" />
    <glyph glyph-name="X" unicode="X" horiz-adv-x="349" 
d="M320 6l-12 -6l-137 239l-129 -239l-12 6l133 247l-115 199l12 6l110 -191l103 191l12 -6l-107 -199z" />
    <glyph glyph-name="Y" unicode="Y" horiz-adv-x="337" 
d="M308 450l-130 -238v-212h-14v211l-131 239l12 6l126 -229l125 229z" />
    <glyph glyph-name="Z" unicode="Z" horiz-adv-x="299" 
d="M265 0h-223c-4 -0 -6 3.33301 -6 10l200 430h-186v14h197c4 0 6 -3.33301 6 -10l-200 -430h212v-14z" />
    <glyph glyph-name="bracketleft" unicode="[" horiz-adv-x="187" 
d="M163 -66h-130c-4.66699 0 -7 2.33301 -7 7v577c0 4.66699 2.33301 7 7 7h127v-14h-120v-563h123v-14z" />
    <glyph glyph-name="backslash" unicode="\" horiz-adv-x="344" 
d="M320 -19l-12 -6l-285 512l12 6z" />
    <glyph glyph-name="bracketright" unicode="]" horiz-adv-x="181" 
d="M157 -58c0 -4.66699 -2.33301 -7 -7 -7h-130v14h123v564h-120v14h127c4.66699 0 7 -2.33301 7 -7v-578z" />
    <glyph glyph-name="asciicircum" unicode="^" horiz-adv-x="230" 
d="M211 404l-8 -12l-84 58l-88 -59l-8 12l92 62h8z" />
    <glyph glyph-name="underscore" unicode="_" horiz-adv-x="463" 
d="M448 -103h-425v32h425v-32z" />
    <glyph glyph-name="grave" unicode="`" horiz-adv-x="146" 
d="M123 406l-8 -12l-90 62l8 12z" />
    <glyph glyph-name="a" unicode="a" horiz-adv-x="380" 
d="M356 0h-13.999v70c-12 -27.333 -30.333 -49.5 -55 -66.5s-55 -25.5 -91 -25.5c-50.667 0 -91 16.667 -121 50c-27.333 30.667 -41 68 -41 112s13 80.667 39 110c29.333 33.333 69.666 50 120.999 50c36 0 66.667 -8.66699 92 -26s44 -40 56 -68v86h14v-292zM196.001 -8
c46 0 82.333 15 109 45c24.667 27.333 37 61 37 101c0 40.667 -12 74.667 -36 102c-26.667 30.667 -64 46 -112 46c-46 0 -81.833 -14.333 -107.5 -43s-38.5 -63 -38.5 -103c0 -40.667 12 -74.667 36 -102c26.667 -30.667 64 -46 112 -46z" />
    <glyph glyph-name="b" unicode="b" horiz-adv-x="378" 
d="M192 -24c-36.667 0 -67.332 8.5 -91.999 25.5s-43 39.833 -55 68.5v-70h-14v454h14v-250c11.333 28 28.666 50 51.999 66c26 18 57.333 27 94 27c50.667 0 90.667 -16.667 120 -50c26.667 -30 40 -67 40 -111s-13 -80.667 -39 -110c-29.333 -33.333 -69.333 -50 -120 -50
zM192.002 -10c46 0 82.333 15 109 45c24.667 27.333 37 61 37 101s-12 73.667 -36 101c-27.333 30.667 -64.333 46 -111 46c-46 0 -81.833 -14.333 -107.5 -43s-38.5 -63 -38.5 -103s12 -73.667 36 -101c27.333 -30.667 64.333 -46 111 -46z" />
    <glyph glyph-name="c" unicode="c" horiz-adv-x="336" 
d="M309 41l-5 -3.99902c-31.333 -30.667 -68.666 -46 -111.999 -46c-44 0 -82 15.667 -114 47s-48 69 -48 113c0 44.667 16 83 48 115s70.333 48 115 48c16 0 31.667 -2.33301 47 -7s32.666 -14.334 51.999 -29.001l5 -4l-8 -12l-5 4c-12 10 -25.667 18.167 -41 24.5
s-32 9.5 -50 9.5c-40.667 0 -75.667 -14.667 -105 -44s-44 -64.333 -44 -105c0 -40 14.667 -74.333 44 -103s64 -43 104 -43c39.333 0 73.333 14 102 42l5 4z" />
    <glyph glyph-name="d" unicode="d" horiz-adv-x="380" 
d="M352 0h-14.998v61c-12 -25.333 -30.167 -46 -54.5 -62s-53.833 -24 -88.5 -24c-51.333 0 -92.333 17 -123 51c-27.333 30.667 -41 68.334 -41 113.001c0 43.333 13 79.666 39 108.999c29.333 33.333 69.666 50 120.999 50c36 0 66.167 -8 90.5 -24
s43.166 -37.667 56.499 -65v245h15v-454zM338.002 131c0 52 -16.332 91.667 -48.999 119c-27.333 22.667 -60.333 34 -99 34c-46 0 -82.333 -15 -109 -45c-24 -27.333 -36 -61 -36 -101s12.333 -74 37 -102c28 -31.333 65.333 -47 112 -47
c43.333 0 78.166 13.5 104.499 40.5s39.5 60.833 39.5 101.5z" />
    <glyph glyph-name="e" unicode="e" horiz-adv-x="381" 
d="M354 150c0 -4.66699 -2.33008 -7 -6.99707 -7h-301c0 -40 14.667 -74.333 44 -103s64 -43 104 -43c62 0 106.333 28.667 133 86l2 6l12 -6l-2 -6c-12.667 -30 -31.834 -53.167 -57.501 -69.5s-54.834 -24.5 -87.501 -24.5c-44.667 0 -82.834 16.167 -114.501 48.5
s-47.5 71.5 -47.5 117.5c0 44 16 81.333 48 112s70 46 114 46s81.667 -15.333 113 -46s47 -67.667 47 -111zM340.003 156c0 38 -14.667 70.333 -44 97s-63.333 40 -102 40c-39.333 0 -73.833 -13.333 -103.5 -40s-44.5 -59 -44.5 -97h294z" />
    <glyph glyph-name="f" unicode="f" horiz-adv-x="173" 
d="M147 440h-26.999c-9.33301 0 -17.333 -2.16699 -24 -6.5s-11.334 -9.66602 -14.001 -15.999s-4 -13.833 -4 -22.5v-103h64v-14h-64v-278h-14v278h-34v14h34v103c0 10 1.66699 19.167 5 27.5s10 15.666 20 21.999s20.333 9.5 31 9.5h27v-14z" />
    <glyph glyph-name="g" unicode="g" horiz-adv-x="380" 
d="M352 32c0 -46.667 -15.998 -87 -47.998 -121s-71.667 -51 -119 -51c-34 0 -64.333 7.33301 -91 22c-31.333 17.333 -52 41.333 -62 72l-2 6l12 6l2 -6c13.333 -27.333 32.666 -48.5 57.999 -63.5s53 -22.5 83 -22.5c44 0 80.5 15.5 109.5 46.5s43.5 68.167 43.5 111.5v34
c-11.333 -26 -29.5 -47.333 -54.5 -64s-55.167 -25 -90.5 -25c-50.667 0 -91 17 -121 51c-27.333 31.333 -41 68.666 -41 111.999c0 44.667 13 81.667 39 111c29.333 33.333 69.666 50 120.999 50c35.333 0 66.333 -8.66699 93 -26
c23.333 -15.333 41.333 -36.666 54 -63.999v81h14v-260zM337.002 114l0.00195312 50c-5.33301 35.333 -20 64 -44 86c-26.667 24.667 -60.667 37 -102 37c-46.667 0 -82.834 -14.5 -108.501 -43.5s-38.5 -63.5 -38.5 -103.5s12.333 -74 37 -102
c28 -31.333 65.333 -47 112 -47c41.333 0 75 12.333 101 37c23.333 22 37.666 50.667 42.999 86z" />
    <glyph glyph-name="h" unicode="h" horiz-adv-x="275" 
d="M246 0h-13.999v195c0 25.333 -9.5 47.5 -28.5 66.5s-41.5 28.5 -67.5 28.5c-28 0 -51.667 -11.667 -71 -35c-6 -7.33301 -12.667 -19 -20 -35v-220h-14v454h14v-201c11.333 14 22.666 24.667 33.999 32c16.667 10.667 35.667 17 57 19c29.333 0 55 -10.667 77 -32
s33 -47 33 -77v-195z" />
    <glyph glyph-name="i" unicode="i" horiz-adv-x="84" 
d="M50 321h-14v21h14v-21zM50 0h-14v292h14v-292z" />
    <glyph glyph-name="j" unicode="j" horiz-adv-x="111" 
d="M66 321h-14v21h14v-21zM66 -59c0 -20.667 -7.16699 -38.5 -21.5 -53.5s-33.166 -22.5 -56.499 -22.5c-6.66699 0 -12.334 0.5 -17.001 1.5s-8.66699 2.5 -12 4.5v14h7c4 0 8.33301 -1 13 -3s7.66699 -3 9 -3c20.667 0 36.5 5.83301 47.5 17.5s16.5 26.5 16.5 44.5v351h14
v-351z" />
    <glyph glyph-name="k" unicode="k" horiz-adv-x="234" 
d="M203 8l-10 -10l-147 133v-131h-14v454h14v-307l144 148l10 -10l-142 -146z" />
    <glyph glyph-name="l" unicode="l" horiz-adv-x="120" 
d="M70 0h-14v454h14v-454z" />
    <glyph glyph-name="m" unicode="m" horiz-adv-x="474" 
d="M446 0l-14.001 -0.000976562v207c0 17.333 -10.167 34.833 -30.5 52.5s-41.833 26.5 -64.5 26.5c-32.667 0 -57.667 -12.667 -75 -38c-5.33301 -8 -11 -21 -17 -39v-209h-14v210c-4.66699 16.667 -9.66699 29 -15 37c-17.333 24.667 -43.333 37 -78 37
c-23.333 0 -44.666 -9.33301 -63.999 -28c-10.667 -10.667 -20 -23 -28 -37v-219h-14v292h14v-47c10 14 21.333 25.333 34 34c18 12.667 37.333 19 58 19c27.333 0 50.333 -7.33301 69 -22c15.333 -12 25.666 -26.333 30.999 -43c10 23.333 23.833 40.333 41.5 51
s36.834 16 57.501 16c27.333 0 52.333 -9.66699 75 -29s34 -40.666 34 -63.999v-207z" />
    <glyph glyph-name="n" unicode="n" horiz-adv-x="276" 
d="M245 0h-14.001v207c0 16.667 -9.33301 33.667 -28 51c-20.667 19.333 -44 29 -70 29c-29.333 0 -53 -11.667 -71 -35c-6 -7.33301 -12.333 -19.333 -19 -36v-216h-14v292h14v-42c8.66699 14 19.334 25.333 32.001 34c16.667 11.333 36 17 58 17
c30 0 56.167 -10.333 78.5 -31s33.5 -41.667 33.5 -63v-207z" />
    <glyph glyph-name="o" unicode="o" horiz-adv-x="381" 
d="M196 314c50.667 0 90.667 -16.333 120 -49c26.667 -30 40 -66.667 40 -110c0 -44.667 -13.667 -82.334 -41 -113.001c-30 -34 -71 -51 -123 -51c-50.667 0 -90.667 16.333 -120 49c-26.667 30 -40 66.667 -40 110c0 44.667 13.667 82.334 41 113.001c30 34 71 51 123 51z
M196 300c-46.667 0 -84 -15.667 -112 -47c-24.667 -28 -37 -62.333 -37 -103c0 -39.333 12 -72.666 36 -99.999c26.667 -30 63 -45 109 -45c46.667 0 84 15.667 112 47c24.667 28 37 62.333 37 103c0 39.333 -12 72.666 -36 99.999c-26.667 30 -63 45 -109 45z" />
    <glyph glyph-name="p" unicode="p" 
d="M195 -21c-37.333 0 -68.668 8.83301 -94.001 26.5s-44.333 41.167 -57 70.5v-202h-14v418h14v-81c12 28 29.667 50 53 66c26 18 57.667 27 95 27c52 0 93 -17 123 -51c27.333 -30.667 41 -68.667 41 -114c0 -43.333 -13.333 -80 -40 -110
c-29.333 -33.333 -69.666 -50 -120.999 -50zM194.998 -7c46.667 0 82.834 14.5 108.501 43.5s38.5 63.5 38.5 103.5c0 40.667 -12.333 75 -37 103c-28 31.333 -65.667 47 -113 47c-46.667 0 -82.834 -14.5 -108.501 -43.5s-38.5 -63.5 -38.5 -103.5
c0 -40.667 12.333 -75 37 -103c28 -31.333 65.667 -47 113 -47z" />
    <glyph glyph-name="q" unicode="q" 
d="M355 -126l-14.001 0.000976562v200c-12 -29.333 -30.667 -52.833 -56 -70.5s-57 -26.5 -95 -26.5c-51.333 0 -91.666 16.667 -120.999 50c-26.667 30 -40 67 -40 111c0 43.333 13.667 80.666 41 111.999c30.667 34.667 71.667 52 123 52c36 0 66.833 -8.66699 92.5 -26
s44.167 -40 55.5 -68v84h14v-418zM192.999 288.001c-46.667 0 -84 -15.667 -112 -47c-25.333 -28.667 -38 -63 -38 -103c0 -40.667 12 -74.334 36 -101.001c27.333 -30.667 64.333 -46 111 -46s84 15.667 112 47c25.333 28.667 38 63 38 103
c0 40.667 -12 74.334 -36 101.001c-27.333 30.667 -64.333 46 -111 46z" />
    <glyph glyph-name="r" unicode="r" horiz-adv-x="169" 
d="M143 294l-6 -10.999l-7 3c-10 4 -18 6 -24 6c-22 0 -39 -11.333 -51 -34c-3.33301 -6.66699 -6.66602 -18.334 -9.99902 -35.001v-223h-14v292h14v-26c6.66699 12 14 21 22 27c11.333 8.66699 24.333 13 39 13c5.33301 0 11 -1 17 -3
c1.33301 -0.666992 5.66602 -2.66699 12.999 -6z" />
    <glyph glyph-name="s" unicode="s" horiz-adv-x="226" 
d="M198 78c0 -25.333 -8.49805 -46.167 -25.498 -62.5s-37.833 -24.5 -62.5 -24.5c-18.667 0 -35.167 5.5 -49.5 16.5s-24.166 25.833 -29.499 44.5l-1 6l14 4l1 -6c4 -16 11.667 -28.5 23 -37.5s25.333 -13.5 42 -13.5c20.667 0 38.167 6.83301 52.5 20.5
s21.5 31.167 21.5 52.5c0 18 -6.33301 33.333 -19 46s-29.334 22 -50.001 28s-38 16.333 -52 31s-21 32 -21 52c0 21.333 7.66699 39.666 23 54.999s34 23 56 23c27.333 0 48.333 -11.333 63 -34l4 -6l-12 -8l-4 6c-12.667 18.667 -29.667 28 -51 28
c-17.333 0 -32.5 -6.16699 -45.5 -18.5s-19.5 -27.5 -19.5 -45.5c0 -16.667 5.66699 -31 17 -43s27.666 -21.167 48.999 -27.5s38.666 -16.166 51.999 -29.499c16 -16 24 -35 24 -57z" />
    <glyph glyph-name="t" unicode="t" horiz-adv-x="168" 
d="M137 278h-48v-278h-14v278h-43v14h43v104h14v-104h48v-14z" />
    <glyph glyph-name="u" unicode="u" horiz-adv-x="280" 
d="M247 112c0 -29.333 -6.66797 -55 -20.001 -77c-18.667 -30.667 -48 -46 -88 -46c-31.333 0 -57.166 11.833 -77.499 35.5s-30.5 52.834 -30.5 87.501v180h14v-180c0 -32 8.5 -58.167 25.5 -78.5s39.833 -30.5 68.5 -30.5c34.667 0 60 13 76 39
c12 19.333 18 42.666 18 69.999v180h14v-180z" />
    <glyph glyph-name="v" unicode="v" horiz-adv-x="311" 
d="M285 288l-119 -295c0 -3.33301 -2.66699 -4.33301 -8 -3c-2.66699 0.666992 -4 1.66699 -4 3l-123 295l12 6l117 -280l113 280z" />
    <glyph glyph-name="w" unicode="w" horiz-adv-x="456" 
d="M429 287l-114 -295c0 -2.66699 -2.66699 -3.66699 -8 -3c-3.33301 0.666992 -5 1.66699 -5 3l-73 183l-70 -182c0 -2 -2 -3.33301 -6 -4c-4.66699 -0.666992 -7 0.333008 -7 3l-120 295l12 6l113 -279l70 182c0 2 2 3.33301 6 4c4.66699 0.666992 7 -0.333008 7 -3
l73 -182l108 278z" />
    <glyph glyph-name="x" unicode="x" horiz-adv-x="291" 
d="M266 5l-12 -8l-108 157l-106 -157l-12 8l109 162l-80 118l12 8l77 -113l76 113l12 -8l-79 -118z" />
    <glyph glyph-name="y" unicode="y" horiz-adv-x="293" 
d="M267 289l-163 -417l-14 6l48 122l-109 290l14 4l103 -274l107 275z" />
    <glyph glyph-name="z" unicode="z" horiz-adv-x="272" 
d="M246 0h-207c-4 0 -6 3.66699 -6 11l187 267h-172v14h186c4 0 6 -3.66699 6 -11l-187 -267h193v-14z" />
    <glyph glyph-name="braceleft" unicode="{" horiz-adv-x="215" 
d="M188 -67l-24.001 -0.999023c-18 0 -34.667 4.33301 -50 13s-25.333 20 -30 34c0 4 -0.833008 10.667 -2.5 20s-2.5 16 -2.5 20v141c0 20.667 -4.83301 36 -14.5 46s-20.167 15 -31.5 15c-3.33301 0 -5 2.33301 -5 7s1.66699 7 5 7c7.33301 0 13.833 2 19.5 6
s11.167 9.33301 16.5 16s8.5 13 9.5 19s1.5 16.333 1.5 31v123c0 18 1.33301 32 4 42s9.33398 20.333 20.001 31c8 8 16.5 13.167 25.5 15.5s20.167 3.5 33.5 3.5h24v-14h-24c-12.667 0 -22.167 -0.833008 -28.5 -2.5s-13.5 -6.16699 -21.5 -13.5s-13.167 -15.333 -15.5 -24
s-3.5 -21.334 -3.5 -38.001v-123c0 -16 -0.5 -27.5 -1.5 -34.5s-4.83301 -14.833 -11.5 -23.5c-3.33301 -4 -6.33301 -8 -9 -12c-2.66699 -2.66699 -7 -5.66699 -13 -9c2.66699 0 5.83398 -1.83301 9.50098 -5.5l7.5 -7.5c5.33301 -6 9.5 -14 12.5 -24s4.5 -20.333 4.5 -31
v-141c0 -5.33301 0.833008 -12.5 2.5 -21.5s2.5 -14.5 2.5 -16.5c0 -7.33301 7.16699 -15 21.5 -23s29.166 -12 44.499 -12l24 1v-14z" />
    <glyph glyph-name="bar" unicode="|" horiz-adv-x="54" 
d="M35 -122h-14v599h14v-599z" />
    <glyph glyph-name="braceright" unicode="}" horiz-adv-x="216" 
d="M181 221c-11.333 0 -22.3291 -5.33301 -32.9961 -16c-8 -8 -12 -23 -12 -45v-141c0 -6 -1 -13.333 -3 -22s-3 -14 -3 -16c-4.66699 -14 -14.334 -25.667 -29.001 -35s-31.334 -14 -50.001 -14l-25 1v14l25 -1c14.667 0 29.167 4 43.5 12s21.5 16.333 21.5 25
c0 3.33301 1 9 3 17s3 14.333 3 19v141c0 12.667 1.16699 23.167 3.5 31.5s6.5 16.166 12.5 23.499l8 8c3.33301 3.33301 6.33301 5 9 5c-3.33301 2.66699 -7 6 -11 10s-7.33301 7.66699 -10 11c-4.66699 6 -8 12.833 -10 20.5s-3 15.167 -3 22.5v15v123
c0 16 -1.16699 28.333 -3.5 37s-7.83301 17.334 -16.5 26.001c-6 6 -13 10 -21 12s-17.667 3 -29 3l-24 1v14l24 -1c12.667 0 23.667 -1.16699 33 -3.5s18.666 -8 27.999 -17s15.5 -18.833 18.5 -29.5s4.5 -24.667 4.5 -42v-123v-27c1.33301 -8 4.66602 -15.333 9.99902 -22
s11 -12.167 17 -16.5s12.333 -6.5 19 -6.5c3.33301 0 5 -2.33301 5 -7s-1.66699 -7 -5 -7z" />
    <glyph glyph-name="asciitilde" unicode="~" horiz-adv-x="240" 
d="M213 458c-3.33301 -8 -6.33496 -13.667 -9.00195 -17c-9.33301 -12 -21.666 -18 -36.999 -18c-13.333 0 -32 6 -56 18c-13.333 6.66699 -24.333 10 -33 10c-7.33301 0 -14.666 -3 -21.999 -9l-13 -13l-4 -5l-10 10l4 5c7.33301 8 13.333 13.667 18 17
c8.66699 6 17.667 9 27 9c14 0 33 -6 57 -18c13.333 -6.66699 24 -10 32 -10c12.667 0 21.667 3.66699 27 11c1.33301 2 3 6 5 12z" />
    <glyph glyph-name="uni00A0" unicode="&#xa0;" horiz-adv-x="339" 
 />
    <glyph glyph-name="exclamdown" unicode="&#xa1;" horiz-adv-x="57" 
d="M37 346h-14v21h14v-21zM37 -100h-14v416h14v-416z" />
    <glyph glyph-name="cent" unicode="&#xa2;" horiz-adv-x="334" 
d="M309 95l-5 -4.00195c-31.333 -30.667 -68.666 -46 -111.999 -46c-16 0 -31.333 2.33301 -46 7s-28.667 11.334 -42 20.001l-23 -46l-8 4l23 47c-20.667 14.667 -36.834 33.167 -48.501 55.5s-17.5 46.5 -17.5 72.5c0 44.667 16 83 48 115s70.333 48 115 48
c6.66699 0 13.834 -0.5 21.501 -1.5s15.167 -2.83301 22.5 -5.5l22 44l8 -4l-21 -43c8.66699 -2.66699 16.5 -6.16699 23.5 -10.5s14.5 -9.5 22.5 -15.5l5 -4l-8 -12l-5 4c-12.667 10.667 -27.667 19.334 -45 26.001l-129 -263c25.333 -16 52.666 -24 81.999 -24
c39.333 0 73.333 14 102 42l5 4zM230 348.998c-4.66699 0 -11.168 0.833984 -19.501 2.50098s-14.166 2.5 -17.499 2.5c-40.667 0 -75.667 -14.667 -105 -44s-44 -64.333 -44 -105c0 -22.667 5.33301 -44.334 16 -65.001s24.667 -37.667 42 -51z" />
    <glyph glyph-name="sterling" unicode="&#xa3;" horiz-adv-x="328" 
d="M299 74l-1.00098 -6.99707c-4.66699 -18.667 -15.334 -34.334 -32.001 -47.001c-10 -8 -21.5 -13.5 -34.5 -16.5s-27.167 -4.5 -42.5 -4.5h-130c-4 0 -6 2.66699 -6 8c0 3.33301 1 5 3 5c42 23.333 63 58.666 63 105.999c0 26.667 -8.33301 53.667 -25 81l-18 28h-45v14
h36l-17 27c-7.33301 11.333 -12.666 23.833 -15.999 37.5s-5 28.167 -5 43.5c0 33.333 11.833 62.5 35.5 87.5s52.167 37.5 85.5 37.5c31.333 0 58.333 -9.33301 81 -28s36.667 -43.667 42 -75l1 -7l-14 -2l-1 7c-4 26 -16.333 47.667 -37 65s-44.667 26 -72 26
c-29.333 0 -54.5 -10.833 -75.5 -32.5s-31.5 -47.834 -31.5 -78.501c0 -26.667 6.33301 -51 19 -73l22 -35h78v-14h-69l13 -20c18 -30 27 -59.667 27 -89c0 -22 -4.16699 -41.667 -12.5 -59s-21.166 -32.666 -38.499 -45.999h107c16 0 29.167 1.16699 39.5 3.5
s20.166 7.16602 29.499 14.499c12.667 10 21.334 23.333 26.001 40l1 7z" />
    <glyph glyph-name="yen" unicode="&#xa5;" horiz-adv-x="337" 
d="M308 449l-130 -239h104v-14h-104v-58h104v-14h-104v-125h-14v125h-104v14h104v58h-104v14h104l-131 239l12 6l126 -229l125 229z" />
    <glyph glyph-name="section" unicode="&#xa7;" horiz-adv-x="196" 
d="M166 76c0 -54 -11.666 -94 -34.999 -120c-16 -18 -32.667 -27 -50 -27c-8 0 -14.833 2.5 -20.5 7.5s-8.5 11.833 -8.5 20.5c0 12.667 5.66699 19 17 19c12.667 0 19 -6.33301 19 -19c0 -4.66699 -1.33301 -8.66699 -4 -12c-0.666992 -0.666992 -2.33398 -2 -5.00098 -4
c13.333 0 23.666 4 30.999 12c10.667 11.333 16 29.666 16 54.999c0 44 -10 92 -30 144c-43.333 112 -65 186.667 -65 224c0 30 6 60 18 90c16 40 37.333 60 64 60c9.33301 0 17.5 -2.83301 24.5 -8.5s10.5 -13.167 10.5 -22.5c0 -5.33301 -1.83301 -10.166 -5.5 -14.499
s-8.16699 -6.5 -13.5 -6.5c-12.667 0 -19 7 -19 21c0 3.33301 1.66699 7 5 11c0.666992 1.33301 2.33398 3 5.00098 5l-7 1c-14 0 -25 -6.33301 -33 -19s-12 -28 -12 -46c0 -40 22 -115 66 -225c21.333 -53.333 32 -102 32 -146zM135.001 493c1.33301 6 -0.666992 9 -6 9
s-7.33301 -3 -6 -9l6 -7zM154.001 76c0 46.667 -11 97.667 -33 153c-33.333 84 -51.833 132.833 -55.5 146.5s-6 27 -7 40s-1.83301 24.5 -2.5 34.5c-8.66699 -24.667 -13 -50 -13 -76c0 -42 10 -89.333 30 -142l52 -130c4 -12 7.16699 -25.167 9.5 -39.5
s3.5 -30.5 3.5 -48.5v-18c0 -2 -0.333008 -4.33301 -1 -7c11.333 21.333 17 50.333 17 87zM76.001 -45c1.33301 6 -0.666992 9 -6 9s-7.33301 -3 -6 -9l6 -7z" />
    <glyph glyph-name="dieresis" unicode="&#xa8;" horiz-adv-x="127" 
d="M96 439h-14v38h14v-38zM49 439h-14v38h14v-38z" />
    <glyph glyph-name="copyright" unicode="&#xa9;" horiz-adv-x="523" 
d="M263 20c-71.333 0 -127.667 23.333 -169 70c-37.333 42 -56 93.667 -56 155c0 60.667 18.667 112 56 154c42 47.333 98.333 71 169 71c71.333 0 127.666 -23.333 168.999 -70c37.333 -42 56 -93.667 56 -155s-18.667 -113 -56 -155
c-41.333 -46.667 -97.666 -70 -168.999 -70zM262.999 44c64 0 114.332 20.668 150.999 62.001c33.333 37.333 50 83.666 50 138.999c0 54.667 -16.667 100.667 -50 138c-37.333 42 -87.666 63 -150.999 63c-62.667 0 -112.667 -21 -150 -63
c-33.333 -37.333 -50 -83.333 -50 -138c0 -54 16.667 -100 50 -138c37.333 -42 87.333 -63 150 -63zM373.998 199.001c-5.33301 -28.667 -18.501 -51.668 -39.501 -69.001s-46.833 -26 -77.5 -26c-39.333 0 -68.333 14.333 -87 43c-16 24.667 -24 56.667 -24 96
c0 38.667 9.66699 71.334 29 98.001c22 30 52 45 90 45c26 0 48.833 -6.5 68.5 -19.5s31.834 -31.833 36.501 -56.5l1 -10h-27l-1 8c-4 16.667 -13.5 29.834 -28.5 39.501s-31.5 14.5 -49.5 14.5c-32 0 -55.5 -11.5 -70.5 -34.5s-22.5 -50.833 -22.5 -83.5
c0 -34.667 5.33301 -61.334 16 -80.001c14.667 -25.333 40 -38 76 -38c18.667 0 36.167 6.83301 52.5 20.5s26.5 31.167 30.5 52.5h27z" />
    <glyph glyph-name="ordfeminine" unicode="&#xaa;" horiz-adv-x="303" 
d="M274 201v14h-229v-14h229zM276 264l-11.002 0.000976562v52c-8.66699 -20.667 -22.167 -37.334 -40.5 -50.001s-41.166 -19 -68.499 -19c-38 0 -68.333 12.667 -91 38c-20 22.667 -30 50.667 -30 84c0 32.667 9.66699 60 29 82c22 25.333 52 38 90 38
c28 0 51.333 -6.33301 70 -19s32.334 -30 41.001 -52v65h11v-219zM155.998 258.001c34.667 0 62 11.333 82 34c18 20 27 45 27 75s-9 55.333 -27 76c-20.667 23.333 -48.667 35 -84 35c-34.667 0 -61.5 -10.667 -80.5 -32s-28.5 -47 -28.5 -77s9 -55.333 27 -76
c20.667 -23.333 48.667 -35 84 -35z" />
    <glyph glyph-name="guillemotleft" unicode="&#xab;" horiz-adv-x="370" 
d="M345 304l-134 -98v-57l132 -102l-8 -12l-135 104l-3 6v65l3 6l137 100zM180 304l-133 -98v-57l131 -102l-8 -12l-134 104l-3 6v65l3 6l136 100z" />
    <glyph glyph-name="logicalnot" unicode="&#xac;" horiz-adv-x="522" 
d="M485 0h-37v157h-413v35h450v-192z" />
    <glyph glyph-name="registered" unicode="&#xae;" horiz-adv-x="523" 
d="M264 20c-71.333 0 -127.667 23.333 -169 70c-37.333 42 -56 93.667 -56 155c0 60.667 18.667 112 56 154c42 47.333 98.333 71 169 71c71.333 0 127.666 -23.333 168.999 -70c37.333 -42 56 -93.667 56 -155s-18.667 -113 -56 -155
c-41.333 -46.667 -97.666 -70 -168.999 -70zM263.999 44c64 0 114.332 20.668 150.999 62.001c33.333 37.333 50 83.666 50 138.999c0 54.667 -16.667 100.667 -50 138c-37.333 42 -87.666 63 -150.999 63c-62.667 0 -112.667 -21 -150 -63
c-33.333 -37.333 -50 -83.333 -50 -138c0 -54 16.667 -100 50 -138c37.333 -42 87.333 -63 150 -63zM371.998 107.001l-27.999 -0.00390625c-4.66699 8.66699 -7.66699 28.167 -9 58.5s-9 49.5 -23 57.5c-8 4 -18 6 -30 6h-11h-71v-122h-27v270h99
c28.667 0 51 -4.33301 67 -13c21.333 -11.333 32 -30.666 32 -57.999c1.33301 -16 -1.83398 -29.333 -9.50098 -40s-19.167 -19.667 -34.5 -27c8 -4 12.667 -6.66699 14 -8c4.66699 -3.33301 8.5 -7.66602 11.5 -12.999s5.16699 -12 6.5 -20s2 -14.333 2 -19
c-0.666992 -11.333 -1 -19.666 -1 -24.999c0 -11.333 2 -23.666 6 -36.999zM344.999 302.997c0 19.333 -6.33301 32.667 -19 40s-29 11 -49 11h-77v-102h75c21.333 0 37.333 3 48 9c14.667 8 22 22 22 42z" />
    <glyph glyph-name="degree" unicode="&#xb0;" horiz-adv-x="151" 
d="M77 374c-14 0 -25.333 4.66699 -34 14s-13 20.333 -13 33s4 23.334 12 32.001s19.333 13 34 13c14 0 25.333 -4.66699 34 -14s13 -20.333 13 -33s-4 -23.334 -12 -32.001s-19.333 -13 -34 -13zM77 388c20.667 0 31 10.667 31 32c0 9.33301 -2.66699 17 -8 23
s-13.333 9 -24 9c-20.667 0 -31 -10.667 -31 -32c0 -8.66699 2.83301 -16.167 8.5 -22.5s13.5 -9.5 23.5 -9.5z" />
    <glyph glyph-name="plusminus" unicode="&#xb1;" horiz-adv-x="325" 
d="M293 202h-125v-127h-14v127h-123v14h123v125h14v-125h125v-14zM291 0h-265v14h265v-14z" />
    <glyph glyph-name="acute" unicode="&#xb4;" horiz-adv-x="155" 
d="M127 465l-90 -62l-8 12l90 62z" />
    <glyph glyph-name="mu" unicode="&#xb5;" horiz-adv-x="416" 
d="M376 74l-3.99902 -20.001c-3.33301 -17.333 -13.666 -31.666 -30.999 -42.999s-33.333 -16 -48 -14s-27.834 9.16699 -39.501 21.5s-17.5 26.833 -17.5 43.5l-17 -17c-14 -14 -28.333 -25.167 -43 -33.5s-28.334 -12.5 -41.001 -12.5c-10.667 0 -23.5 3.33301 -38.5 10
s-27.167 16 -36.5 28v-23c0 -13.333 4 -30.333 12 -51s12 -39.334 12 -56.001c0 -11.333 -3 -21.333 -9 -30s-14 -13 -24 -13c-9.33301 0 -17 4 -23 12s-9 17 -9 27c0 16 3.16699 32.5 9.5 49.5s9.83301 29.5 10.5 37.5l1 19v327h56v-225c0 -18.667 5.5 -35 16.5 -49
s25.167 -21 42.5 -21c18 0 36.167 7 54.5 21s27.5 30 27.5 48v226h54v-255c0 -14 3.66699 -27 11 -39s17 -16.667 29 -14c14 2.66699 23.667 12.334 29 29.001l5 17h11z" />
    <glyph glyph-name="paragraph" unicode="&#xb6;" horiz-adv-x="302" 
d="M266 -99l-14 0.000976562v562h-25v-561h-14v273h-49c-32 0 -61.667 14.667 -89 44c-29.333 31.333 -44 67.666 -44 108.999c0 45.333 15.167 81.5 45.5 108.5s65.5 40.5 105.5 40.5h77c4.66699 0 7 -2.33301 7 -7v-569zM213 189.001v273.999h-31
c-36.667 0 -68.667 -12.167 -96 -36.5s-41 -57.166 -41 -98.499c0 -37.333 13 -69.833 39 -97.5s52.667 -41.5 80 -41.5h49z" />
    <glyph glyph-name="periodcentered" unicode="&#xb7;" horiz-adv-x="87" 
d="M53 226h-14v21h14v-21z" />
    <glyph glyph-name="periodcentered" unicode="&#x2219;" horiz-adv-x="87" 
d="M53 226h-14v21h14v-21z" />
    <glyph glyph-name="ordmasculine" unicode="&#xba;" horiz-adv-x="304" 
d="M270 195h-229v14h229v-14zM155 490c38 0 68 -12.333 90 -37c20 -22.667 30 -50.334 30 -83.001c0 -33.333 -10 -61.333 -30 -84c-23.333 -26 -54.333 -39 -93 -39c-38 0 -67.5 11.833 -88.5 35.5s-31.5 51.834 -31.5 84.501s10.333 60.667 31 84c23.333 26 54 39 92 39z
M155 479c-35.333 0 -62.833 -11 -82.5 -33s-29.5 -48.667 -29.5 -80c0 -29.333 9.5 -54.833 28.5 -76.5s45.833 -32.5 80.5 -32.5c35.333 0 62.833 11.167 82.5 33.5s29.5 48.833 29.5 79.5c0 29.333 -9 54.333 -27 75c-20 22.667 -47.333 34 -82 34z" />
    <glyph glyph-name="guillemotright" unicode="&#xbb;" horiz-adv-x="369" 
d="M340 145l-3 -6l-135 -104l-8 12l132 102v57l-134 98l8 12l137 -100l3 -6v-65zM175 145l-3 -6l-134 -104l-8 12l131 102v57l-133 98l8 12l136 -100l3 -6v-65z" />
    <glyph glyph-name="questiondown" unicode="&#xbf;" horiz-adv-x="318" 
d="M203 345h-14v21h14v-21zM301 -31c-12.667 -14.667 -23.332 -25.666 -31.999 -32.999c-28.667 -22.667 -58.667 -34 -90 -34c-40.667 0 -75.334 14 -104.001 42s-43 62.667 -43 104c0 26 6.33301 49.5 19 70.5s30.334 39.5 53.001 55.5c34.667 24 56 39.667 64 47
c20 18 30 36 30 54c0 8 -2.33301 17.333 -7 28c-0.666992 1.33301 -2 3.66602 -4 6.99902l12 8c2.66699 -6 4.66699 -10.667 6 -14c4.66699 -12 7 -21.667 7 -29c0 -26 -16 -51.333 -48 -76c-24 -16.667 -41.333 -29 -52 -37
c-20.667 -14.667 -36.834 -31.334 -48.501 -50.001s-17.5 -40 -17.5 -64c0 -37.333 13 -68.666 39 -93.999s57.333 -38 94 -38c28.667 0 55.667 10 81 30c8 6.66699 17.667 17 29 31z" />
    <glyph glyph-name="Agrave" unicode="&#xc0;" horiz-adv-x="348" 
d="M318 4l-14.001 -4l-63 214h-131l-62 -214l-14 4l134 461c0 2 2 3 6 3c4.66699 0 7.33398 -1 8.00098 -3zM236.999 228l-62 210l-61 -210h123zM225.999 501l-8 -12l-90 62l8 12z" />
    <glyph glyph-name="Aacute" unicode="&#xc1;" horiz-adv-x="346" 
d="M320 4l-14.001 -4l-63 214h-131l-62 -214l-14 4l134 461c0 2 2 3 6 3c4.66699 0 7.33398 -1 8.00098 -3zM238.999 228l-62 210l-61 -210h123zM228.999 551l-90 -62l-8 12l90 62z" />
    <glyph glyph-name="Acircumflex" unicode="&#xc2;" horiz-adv-x="348" 
d="M320 4l-14.001 -4l-63 214h-131l-62 -214l-14 4l134 461c0 2 2 3 6 3c4.66699 0 7.33398 -1 8.00098 -3zM238.999 228l-62 210l-61 -210h123zM269.999 502l-8 -12l-84 58l-88 -59l-8 12l92 62h8z" />
    <glyph glyph-name="Atilde" unicode="&#xc3;" horiz-adv-x="347" 
d="M317 4l-14.001 -4l-63 214h-131l-62 -214l-14 4l134 461c0 2 2 3 6 3c4.66699 0 7.33398 -1 8.00098 -3zM235.999 228l-62 210l-61 -210h123zM261.999 525c-3.33301 -8 -6.33496 -13.667 -9.00195 -17c-9.33301 -12 -21.666 -18 -36.999 -18c-13.333 0 -32 6 -56 18
c-13.333 6.66699 -24.333 10 -33 10c-7.33301 0 -14.666 -3 -21.999 -9l-13 -13l-4 -5l-10 10l4 5c7.33301 8 13.333 13.667 18 17c8.66699 6 17.667 9 27 9c14 0 33 -6 57 -18c13.333 -6.66699 24 -10 32 -10c12.667 0 21.667 3.66699 27 11c1.33301 2 3 6 5 12z" />
    <glyph glyph-name="Adieresis" unicode="&#xc4;" horiz-adv-x="347" 
d="M317 4l-14.001 -4l-63 214h-131l-62 -214l-14 4l134 461c0 2 2 3 6 3c4.66699 0 7.33398 -1 8.00098 -3zM235.999 228l-62 210l-61 -210h123zM208.999 489h-14v38h14v-38zM161.999 489h-14v38h14v-38z" />
    <glyph glyph-name="Aring" unicode="&#xc5;" horiz-adv-x="348" 
d="M317 4l-14.001 -4l-63 214h-131l-62 -214l-14 4l134 461c0 2 2 3 6 3c4.66699 0 7.33398 -1 8.00098 -3zM235.999 228l-62 210l-61 -210h123zM172.999 490c-14 0 -25.333 4.66699 -34 14s-13 20.333 -13 33s4 23.334 12 32.001s19.333 13 34 13
c14 0 25.333 -4.66699 34 -14s13 -20.333 13 -33s-4 -23.334 -12 -32.001s-19.333 -13 -34 -13zM172.999 504c20.667 0 31 10.667 31 32c0 9.33301 -2.66699 17 -8 23s-13.333 9 -24 9c-20.667 0 -31 -10.667 -31 -32c0 -8.66699 2.83301 -16.167 8.5 -22.5
s13.5 -9.5 23.5 -9.5z" />
    <glyph glyph-name="AE" unicode="&#xc6;" horiz-adv-x="510" 
d="M488 -1h-175c-4.66699 0 -7 2.33301 -7 7v205h-127l-131 -216l-12 8l273 450h176v-14h-165v-201h163v-14h-163v-211h168v-14zM306 225v195l-118 -195h118z" />
    <glyph glyph-name="Ccedilla" unicode="&#xc7;" horiz-adv-x="467" 
d="M447 54l-5.00195 -4.00098c-26 -20.667 -50.667 -35.667 -74 -45s-52 -14 -86 -14v-34c8 0 14.5 -3 19.5 -9s7.5 -12.667 7.5 -20c0 -12 -3.33301 -20.833 -10 -26.5s-15 -8.5 -25 -8.5c-9.33301 0 -17.666 2.5 -24.999 7.5s-11 12.167 -11 21.5v7h14v-7
c0 -3.33301 2.33301 -6.66602 7 -9.99902s9.66699 -5 15 -5c14 0 21 7 21 21c0 6 -4.66699 10.667 -14 14c-1.33301 0 -3.66602 0.666992 -6.99902 2c-4 0 -6 2.33301 -6 7v41h-7c-63.333 5.33301 -116.833 31.666 -160.5 78.999s-65.5 103.333 -65.5 168
c0 66.667 24.333 123.667 73 171s106.667 71 174 71c30 0 58.333 -5 85 -15c22 -8 44 -20 66 -36l5 -3l-8 -12l-5 3c-18.667 14 -40.334 25.667 -65.001 35s-50.667 14 -78 14c-62.667 0 -117.167 -22.5 -163.5 -67.5s-69.5 -98.5 -69.5 -160.5
c0 -63.333 22.833 -118.166 68.5 -164.499s100.5 -69.5 164.5 -69.5c56.667 0 107.334 18.333 152.001 55l5 4z" />
    <glyph glyph-name="Egrave" unicode="&#xc8;" horiz-adv-x="238" 
d="M212 0h-175c-4.66699 -0 -7 2.33301 -7 7v440c0 4.66699 2.33301 7 7 7h172v-14h-165v-201h163v-14h-163v-211h168v-14zM167 502l-8 -12l-90 62l8 12z" />
    <glyph glyph-name="Eacute" unicode="&#xc9;" horiz-adv-x="240" 
d="M218 0h-175c-4.66699 -0 -7 2.33301 -7 7v440c0 4.66699 2.33301 7 7 7h172v-14h-165v-201h163v-14h-163v-211h168v-14zM180 552l-90 -62l-8 12l90 62z" />
    <glyph glyph-name="Ecircumflex" unicode="&#xca;" horiz-adv-x="248" 
d="M212 0h-175c-4.66699 -0 -7 2.33301 -7 7v440c0 4.66699 2.33301 7 7 7h172v-14h-165v-201h163v-14h-163v-211h168v-14zM221 500l-8 -12l-84 58l-88 -59l-8 12l92 62h8z" />
    <glyph glyph-name="Edieresis" unicode="&#xcb;" horiz-adv-x="242" 
d="M212 0h-175c-4.66699 -0 -7 2.33301 -7 7v440c0 4.66699 2.33301 7 7 7h172v-14h-165v-201h163v-14h-163v-211h168v-14zM150 491h-14v38h14v-38zM103 491h-14v38h14v-38z" />
    <glyph glyph-name="Igrave" unicode="&#xcc;" horiz-adv-x="120" 
d="M68 0h-14v454h14v-454zM111 504l-8 -12l-90 62l8 12z" />
    <glyph glyph-name="Iacute" unicode="&#xcd;" horiz-adv-x="134" 
d="M68 0h-14v454h14v-454zM115 551l-90 -62l-8 12l90 62z" />
    <glyph glyph-name="Icircumflex" unicode="&#xce;" horiz-adv-x="212" 
d="M116 0h-14v454h14v-454zM199 504l-8 -12l-84 58l-88 -59l-8 12l92 62h8z" />
    <glyph glyph-name="Idieresis" unicode="&#xcf;" horiz-adv-x="122" 
d="M68 0h-14v454h14v-454zM92 491h-14v38h14v-38zM45 491h-14v38h14v-38z" />
    <glyph glyph-name="Ntilde" unicode="&#xd1;" horiz-adv-x="342" 
d="M319 1c0 -3.33301 -2.66699 -5.33301 -8 -6c-3.33301 -0.666992 -5 0 -5 2l-253 433v-430h-14v456c0 3.33301 2.66699 5.33301 8 6c3.33301 0.666992 5 0 5 -2l253 -433v427h14v-453zM273 525c-3.33301 -8 -6.33496 -13.667 -9.00195 -17
c-9.33301 -12 -21.666 -18 -36.999 -18c-13.333 0 -32 6 -56 18c-13.333 6.66699 -24.333 10 -33 10c-7.33301 0 -14.666 -3 -21.999 -9l-13 -13l-4 -5l-10 10l4 5c7.33301 8 13.333 13.667 18 17c8.66699 6 17.667 9 27 9c14 0 33 -6 57 -18c13.333 -6.66699 24 -10 32 -10
c12.667 0 21.667 3.66699 27 11c1.33301 2 3 6 5 12z" />
    <glyph glyph-name="Ograve" unicode="&#xd2;" horiz-adv-x="556" 
d="M280 -9c-78.667 0 -141 26 -187 78c-42 47.333 -63 105 -63 173c0 66.667 20.333 123 61 169c45.333 51.333 107 77 185 77c78.667 0 141 -26 187 -78c42 -47.333 63 -105 63 -173c0 -66.667 -20.333 -123 -61 -169c-45.333 -51.333 -107 -77 -185 -77zM280 5
c74 0 132.333 24 175 72c38.667 43.333 58 96.666 58 159.999c0 64.667 -19.667 119 -59 163c-44 49.333 -103.333 74 -178 74c-74 0 -132.333 -24 -175 -72c-38.667 -43.333 -58 -96.666 -58 -159.999c0 -64.667 19.667 -119 59 -163c44 -49.333 103.333 -74 178 -74z
M313 524l-8 -12l-90 62l8 12z" />
    <glyph glyph-name="Oacute" unicode="&#xd3;" horiz-adv-x="556" 
d="M280 -9c-78.667 0 -141 26 -187 78c-42 47.333 -63 105 -63 173c0 66.667 20.333 123 61 169c45.333 51.333 107 77 185 77c78.667 0 141 -26 187 -78c42 -47.333 63 -105 63 -173c0 -66.667 -20.333 -123 -61 -169c-45.333 -51.333 -107 -77 -185 -77zM280 5
c74 0 132.333 24 175 72c38.667 43.333 58 96.666 58 159.999c0 64.667 -19.667 119 -59 163c-44 49.333 -103.333 74 -178 74c-74 0 -132.333 -24 -175 -72c-38.667 -43.333 -58 -96.666 -58 -159.999c0 -64.667 19.667 -119 59 -163c44 -49.333 103.333 -74 178 -74z
M333 573l-90 -62l-8 12l90 62z" />
    <glyph glyph-name="Ocircumflex" unicode="&#xd4;" horiz-adv-x="556" 
d="M280 -9c-78.667 0 -141 26 -187 78c-42 47.333 -63 105 -63 173c0 66.667 20.333 123 61 169c45.333 51.333 107 77 185 77c78.667 0 141 -26 187 -78c42 -47.333 63 -105 63 -173c0 -66.667 -20.333 -123 -61 -169c-45.333 -51.333 -107 -77 -185 -77zM280 5
c74 0 132.333 24 175 72c38.667 43.333 58 96.666 58 159.999c0 64.667 -19.667 119 -59 163c-44 49.333 -103.333 74 -178 74c-74 0 -132.333 -24 -175 -72c-38.667 -43.333 -58 -96.666 -58 -159.999c0 -64.667 19.667 -119 59 -163c44 -49.333 103.333 -74 178 -74z
M371 522l-8 -12l-84 58l-88 -59l-8 12l92 62h8z" />
    <glyph glyph-name="Otilde" unicode="&#xd5;" horiz-adv-x="554" 
d="M281 -9c-78.667 0 -141 26 -187 78c-42 47.333 -63 105 -63 173c0 66.667 20.333 123 61 169c45.333 51.333 107 77 185 77c78.667 0 141 -26 187 -78c42 -47.333 63 -105 63 -173c0 -66.667 -20.333 -123 -61 -169c-45.333 -51.333 -107 -77 -185 -77zM281 5
c74 0 132.333 24 175 72c38.667 43.333 58 96.666 58 159.999c0 64.667 -19.667 119 -59 163c-44 49.333 -103.333 74 -178 74c-74 0 -132.333 -24 -175 -72c-38.667 -43.333 -58 -96.666 -58 -159.999c0 -64.667 19.667 -119 59 -163c44 -49.333 103.333 -74 178 -74z
M372 549c-3.33301 -8 -6.33496 -13.667 -9.00195 -17c-9.33301 -12 -21.666 -18 -36.999 -18c-13.333 0 -32 6 -56 18c-13.333 6.66699 -24.333 10 -33 10c-7.33301 0 -14.666 -3 -21.999 -9l-13 -13l-4 -5l-10 10l4 5c7.33301 8 13.333 13.667 18 17
c8.66699 6 17.667 9 27 9c14 0 33 -6 57 -18c13.333 -6.66699 24 -10 32 -10c12.667 0 21.667 3.66699 27 11c1.33301 2 3 6 5 12z" />
    <glyph glyph-name="Odieresis" unicode="&#xd6;" horiz-adv-x="554" 
d="M281 -9c-78.667 0 -141 26 -187 78c-42 47.333 -63 105 -63 173c0 66.667 20.333 123 61 169c45.333 51.333 107 77 185 77c78.667 0 141 -26 187 -78c42 -47.333 63 -105 63 -173c0 -66.667 -20.333 -123 -61 -169c-45.333 -51.333 -107 -77 -185 -77zM281 5
c74 0 132.333 24 175 72c38.667 43.333 58 96.666 58 159.999c0 64.667 -19.667 119 -59 163c-44 49.333 -103.333 74 -178 74c-74 0 -132.333 -24 -175 -72c-38.667 -43.333 -58 -96.666 -58 -159.999c0 -64.667 19.667 -119 59 -163c44 -49.333 103.333 -74 178 -74z
M307 511h-14v38h14v-38zM260 511h-14v38h14v-38z" />
    <glyph glyph-name="Oslash" unicode="&#xd8;" horiz-adv-x="557" 
d="M448 531l-41 -73c40.667 -22 71.667 -52.667 93 -92s32 -82.333 32 -129c0 -67.333 -20.333 -123.666 -61 -168.999c-46 -51.333 -107.667 -77 -185 -77c-46.667 0 -87.667 9.33301 -123 28l-37 -66l-13 7l37 66c-36.667 22.667 -64.834 53.5 -84.501 92.5
s-29.5 80.167 -29.5 123.5c0 67.333 20.333 123.666 61 168.999c46 51.333 107.667 77 185 77c42.667 0 80.334 -7.66699 113.001 -23l40 72zM388 452c-31.333 14.667 -66.668 22 -106.001 22c-74 0 -132.333 -24 -175 -72c-38.667 -43.333 -58 -96.666 -58 -159.999
c0 -41.333 9.33301 -80.333 28 -117s45.334 -65.334 80.001 -86.001zM400.998 446l-231 -414c34 -18 72.667 -27 116 -27c74 0 132.333 24 175 72c38.667 43.333 58 96.666 58 159.999c0 43.333 -10 83.833 -30 121.5s-49.333 66.834 -88 87.501z" />
    <glyph glyph-name="Ugrave" unicode="&#xd9;" horiz-adv-x="318" 
d="M290 126c0 -44.667 -13 -79.001 -39 -103.001c-23.333 -21.333 -53.333 -32 -90 -32c-38.667 0 -68.667 9 -90 27c-26.667 22.667 -40 60 -40 112v338h14v-338c0 -48.667 11.333 -82.667 34 -102c18 -15.333 45.333 -23 82 -23c34.667 0 61.667 8.66699 81 26
c22.667 20.667 34 52.334 34 95.001v342h14v-342zM213 521.999l-8 -12l-90 62l8 12z" />
    <glyph glyph-name="Uacute" unicode="&#xda;" horiz-adv-x="322" 
d="M290 126c0 -44.667 -13 -79.001 -39 -103.001c-23.333 -21.333 -53.333 -32 -90 -32c-38.667 0 -68.667 9 -90 27c-26.667 22.667 -40 60 -40 112v338h14v-338c0 -48.667 11.333 -82.667 34 -102c18 -15.333 45.333 -23 82 -23c34.667 0 61.667 8.66699 81 26
c22.667 20.667 34 52.334 34 95.001v342h14v-342zM227 574.999l-90 -62l-8 12l90 62z" />
    <glyph glyph-name="Ucircumflex" unicode="&#xdb;" horiz-adv-x="318" 
d="M290 126c0 -44.667 -13 -79.001 -39 -103.001c-23.333 -21.333 -53.333 -32 -90 -32c-38.667 0 -68.667 9 -90 27c-26.667 22.667 -40 60 -40 112v338h14v-338c0 -48.667 11.333 -82.667 34 -102c18 -15.333 45.333 -23 82 -23c34.667 0 61.667 8.66699 81 26
c22.667 20.667 34 52.334 34 95.001v342h14v-342zM255 523.999l-8 -12l-84 58l-88 -59l-8 12l92 62h8z" />
    <glyph glyph-name="Udieresis" unicode="&#xdc;" horiz-adv-x="318" 
d="M292 126c0 -44.667 -13 -79.001 -39 -103.001c-23.333 -21.333 -53.333 -32 -90 -32c-38.667 0 -68.667 9 -90 27c-26.667 22.667 -40 60 -40 112v338h14v-338c0 -48.667 11.333 -82.667 34 -102c18 -15.333 45.333 -23 82 -23c34.667 0 61.667 8.66699 81 26
c22.667 20.667 34 52.334 34 95.001v342h14v-342zM190 489.999h-14v38h14v-38zM143 489.999h-14v38h14v-38z" />
    <glyph glyph-name="germandbls" unicode="&#xdf;" horiz-adv-x="417" 
d="M387 158c0 -44.667 -15.832 -83.166 -47.499 -115.499s-69.5 -48.5 -113.5 -48.5c-54.667 0 -97.667 20.667 -129 62l-3 5l12 8l3 -5c29.333 -37.333 68.333 -56 117 -56c39.333 0 73.666 15 102.999 45s44 65 44 105c0 39.333 -14.667 74 -44 104s-64 45 -104 45
c-10.667 0 -24.667 -2.33301 -42 -7c-6 -1.33301 -14 -4 -24 -8c-2 0 -3.33301 2.33301 -4 7s0 7 2 7c11.333 8.66699 19.666 15.667 24.999 21c17.333 17.333 26 32.333 26 45c0 17.333 -6.5 32.5 -19.5 45.5s-28.5 19.5 -46.5 19.5c-17.333 0 -32.5 -4.83301 -45.5 -14.5
s-19.5 -22.167 -19.5 -37.5v-371h-14v283h-29v14h29v74c0 19.333 8 35.166 24 47.499s34.333 18.5 55 18.5c21.333 0 40 -7.66699 56 -23s24 -34 24 -56c0 -10 -2 -19 -6 -27s-10.667 -17.333 -20 -28c3.33301 0 8.33301 0.666992 15 2s11.334 2 14.001 2
c44 0 82 -16 114 -48s48 -70.333 48 -115z" />
    <glyph glyph-name="agrave" unicode="&#xe0;" horiz-adv-x="380" 
d="M352 0h-13.999v70c-12 -27.333 -30.333 -49.5 -55 -66.5s-55 -25.5 -91 -25.5c-50.667 0 -91 16.667 -121 50c-27.333 30.667 -41 68 -41 112s13 80.667 39 110c29.333 33.333 69.666 50 120.999 50c36 0 66.667 -8.66699 92 -26s44 -40 56 -68v86h14v-292zM192.001 -8
c46 0 82.333 15 109 45c24.667 27.333 37 61 37 101c0 40.667 -12 74.667 -36 102c-26.667 30.667 -64 46 -112 46c-46 0 -81.833 -14.333 -107.5 -43s-38.5 -63 -38.5 -103c0 -40.667 12 -74.667 36 -102c26.667 -30.667 64 -46 112 -46zM237.001 352l-8 -12l-90 62l8 12z
" />
    <glyph glyph-name="aacute" unicode="&#xe1;" horiz-adv-x="379" 
d="M352 0h-13.999v70c-12 -27.333 -30.333 -49.5 -55 -66.5s-55 -25.5 -91 -25.5c-50.667 0 -91 16.667 -121 50c-27.333 30.667 -41 68 -41 112s13 80.667 39 110c29.333 33.333 69.666 50 120.999 50c36 0 66.667 -8.66699 92 -26s44 -40 56 -68v86h14v-292zM192.001 -8
c46 0 82.333 15 109 45c24.667 27.333 37 61 37 101c0 40.667 -12 74.667 -36 102c-26.667 30.667 -64 46 -112 46c-46 0 -81.833 -14.333 -107.5 -43s-38.5 -63 -38.5 -103c0 -40.667 12 -74.667 36 -102c26.667 -30.667 64 -46 112 -46zM237.001 401l-90 -62l-8 12l90 62z
" />
    <glyph glyph-name="acircumflex" unicode="&#xe2;" horiz-adv-x="380" 
d="M352 0h-13.999v70c-12 -27.333 -30.333 -49.5 -55 -66.5s-55 -25.5 -91 -25.5c-50.667 0 -91 16.667 -121 50c-27.333 30.667 -41 68 -41 112s13 80.667 39 110c29.333 33.333 69.666 50 120.999 50c36 0 66.667 -8.66699 92 -26s44 -40 56 -68v86h14v-292zM192.001 -8
c46 0 82.333 15 109 45c24.667 27.333 37 61 37 101c0 40.667 -12 74.667 -36 102c-26.667 30.667 -64 46 -112 46c-46 0 -81.833 -14.333 -107.5 -43s-38.5 -63 -38.5 -103c0 -40.667 12 -74.667 36 -102c26.667 -30.667 64 -46 112 -46zM287.001 350l-8 -12l-84 58
l-88 -59l-8 12l92 62h8z" />
    <glyph glyph-name="atilde" unicode="&#xe3;" horiz-adv-x="378" 
d="M352 0h-13.999v70c-12 -27.333 -30.333 -49.5 -55 -66.5s-55 -25.5 -91 -25.5c-50.667 0 -91 16.667 -121 50c-27.333 30.667 -41 68 -41 112s13 80.667 39 110c29.333 33.333 69.666 50 120.999 50c36 0 66.667 -8.66699 92 -26s44 -40 56 -68v86h14v-292zM192.001 -8
c46 0 82.333 15 109 45c24.667 27.333 37 61 37 101c0 40.667 -12 74.667 -36 102c-26.667 30.667 -64 46 -112 46c-46 0 -81.833 -14.333 -107.5 -43s-38.5 -63 -38.5 -103c0 -40.667 12 -74.667 36 -102c26.667 -30.667 64 -46 112 -46zM285.001 374
c-3.33301 -8 -6.33496 -13.667 -9.00195 -17c-9.33301 -12 -21.666 -18 -36.999 -18c-13.333 0 -32 6 -56 18c-13.333 6.66699 -24.333 10 -33 10c-7.33301 0 -14.666 -3 -21.999 -9l-13 -13l-4 -5l-10 10l4 5c7.33301 8 13.333 13.667 18 17c8.66699 6 17.667 9 27 9
c14 0 33 -6 57 -18c13.333 -6.66699 24 -10 32 -10c12.667 0 21.667 3.66699 27 11c1.33301 2 3 6 5 12z" />
    <glyph glyph-name="adieresis" unicode="&#xe4;" horiz-adv-x="377" 
d="M354 0h-13.999v70c-12 -27.333 -30.333 -49.5 -55 -66.5s-55 -25.5 -91 -25.5c-50.667 0 -91 16.667 -121 50c-27.333 30.667 -41 68 -41 112s13 80.667 39 110c29.333 33.333 69.666 50 120.999 50c36 0 66.667 -8.66699 92 -26s44 -40 56 -68v86h14v-292zM194.001 -8
c46 0 82.333 15 109 45c24.667 27.333 37 61 37 101c0 40.667 -12 74.667 -36 102c-26.667 30.667 -64 46 -112 46c-46 0 -81.833 -14.333 -107.5 -43s-38.5 -63 -38.5 -103c0 -40.667 12 -74.667 36 -102c26.667 -30.667 64 -46 112 -46zM221.001 341h-14v38h14v-38z
M174.001 341h-14v38h14v-38z" />
    <glyph glyph-name="aring" unicode="&#xe5;" horiz-adv-x="377" 
d="M354 0h-13.999v70c-12 -27.333 -30.333 -49.5 -55 -66.5s-55 -25.5 -91 -25.5c-50.667 0 -91 16.667 -121 50c-27.333 30.667 -41 68 -41 112s13 80.667 39 110c29.333 33.333 69.666 50 120.999 50c36 0 66.667 -8.66699 92 -26s44 -40 56 -68v86h14v-292zM194.001 -8
c46 0 82.333 15 109 45c24.667 27.333 37 61 37 101c0 40.667 -12 74.667 -36 102c-26.667 30.667 -64 46 -112 46c-46 0 -81.833 -14.333 -107.5 -43s-38.5 -63 -38.5 -103c0 -40.667 12 -74.667 36 -102c26.667 -30.667 64 -46 112 -46zM194.001 340
c-14 0 -25.333 4.66699 -34 14s-13 20.333 -13 33s4 23.334 12 32.001s19.333 13 34 13c14 0 25.333 -4.66699 34 -14s13 -20.333 13 -33s-4 -23.334 -12 -32.001s-19.333 -13 -34 -13zM194.001 354c20.667 0 31 10.667 31 32c0 9.33301 -2.66699 17 -8 23s-13.333 9 -24 9
c-20.667 0 -31 -10.667 -31 -32c0 -8.66699 2.83301 -16.167 8.5 -22.5s13.5 -9.5 23.5 -9.5z" />
    <glyph glyph-name="ae" unicode="&#xe6;" horiz-adv-x="683" 
d="M657 167c0 -4.66699 -2.33008 -7 -6.99707 -7h-301c0 -39.333 14.667 -73.666 44 -102.999s64 -44 104 -44c62 0 106.333 28.667 133 86l2 6l12 -6l-2 -6c-12.667 -30 -31.834 -53.167 -57.501 -69.5s-54.834 -24.5 -87.501 -24.5c-32 0 -61.5 9.16699 -88.5 27.5
s-46.833 42.166 -59.5 71.499v-77h-14v70c-12 -27.333 -30.333 -49.5 -55 -66.5s-55 -25.5 -91 -25.5c-50.667 0 -91 16.667 -121 50c-27.333 30.667 -41 68 -41 112s13 80.667 39 110c29.333 33.333 69.666 50 120.999 50c36 0 66.667 -8.66699 92 -26s44 -40 56 -68v86h14
v-84c12.667 28 32.5 50.833 59.5 68.5s56.5 26.5 88.5 26.5c44 0 81.667 -15.333 113 -46s47 -67.667 47 -111zM643.003 173c0 38 -14.667 70.333 -44 97s-63.333 40 -102 40c-39.333 0 -73.833 -13.333 -103.5 -40s-44.5 -59 -44.5 -97h294zM189.003 13
c46 0 82.333 15 109 45c24.667 27.333 37 61 37 101c0 40.667 -12 74.667 -36 102c-26.667 30.667 -64 46 -112 46c-46 0 -81.833 -14.333 -107.5 -43s-38.5 -63 -38.5 -103c0 -40.667 12 -74.667 36 -102c26.667 -30.667 64 -46 112 -46z" />
    <glyph glyph-name="ccedilla" unicode="&#xe7;" horiz-adv-x="334" 
d="M307 41l-5.00098 -4c-32 -30.667 -68.333 -46 -109 -46v-28c6 0 11.167 -2.5 15.5 -7.5s6.5 -10.5 6.5 -16.5c0 -10 -3 -17.5 -9 -22.5s-13 -7.5 -21 -7.5c-7.33301 0 -14.166 2.16699 -20.499 6.5s-9.5 10.5 -9.5 18.5v7h14v-7c0 -7.33301 5.33301 -11 16 -11
s16 5.33301 16 16c0 2.66699 -2.66699 5.33398 -8 8.00098c-1.33301 0.666992 -4 1.66699 -8 3c-4 0 -6 2.33301 -6 7l-1 34c-41.333 0 -76.666 15.833 -105.999 47.5s-44 69.167 -44 112.5c0 44.667 16 83 48 115s70.333 48 115 48c16 0 31.667 -2.33301 47 -7
s32.666 -14.334 51.999 -29.001l5 -4l-8 -12l-5 4c-12 10 -25.667 18.167 -41 24.5s-32 9.5 -50 9.5c-40.667 0 -75.667 -14.667 -105 -44s-44 -64.333 -44 -105c0 -40 14.667 -74.333 44 -103s64 -43 104 -43c39.333 0 73.333 14 102 42l5 4z" />
    <glyph glyph-name="egrave" unicode="&#xe8;" 
d="M354 150c0 -4.66699 -2.33008 -7 -6.99707 -7h-301c0 -40 14.667 -74.333 44 -103s64 -43 104 -43c62 0 106.333 28.667 133 86l2 6l12 -6l-2 -6c-12.667 -30 -31.834 -53.167 -57.501 -69.5s-54.834 -24.5 -87.501 -24.5c-44.667 0 -82.834 16.167 -114.501 48.5
s-47.5 71.5 -47.5 117.5c0 44 16 81.333 48 112s70 46 114 46s81.667 -15.333 113 -46s47 -67.667 47 -111zM340.003 156c0 38 -14.667 70.333 -44 97s-63.333 40 -102 40c-39.333 0 -73.833 -13.333 -103.5 -40s-44.5 -59 -44.5 -97h294zM241.003 352l-8 -12l-90 62l8 12z
" />
    <glyph glyph-name="eacute" unicode="&#xe9;" 
d="M354 150c0 -4.66699 -2.33008 -7 -6.99707 -7h-301c0 -40 14.667 -74.333 44 -103s64 -43 104 -43c62 0 106.333 28.667 133 86l2 6l12 -6l-2 -6c-12.667 -30 -31.834 -53.167 -57.501 -69.5s-54.834 -24.5 -87.501 -24.5c-44.667 0 -82.834 16.167 -114.501 48.5
s-47.5 71.5 -47.5 117.5c0 44 16 81.333 48 112s70 46 114 46s81.667 -15.333 113 -46s47 -67.667 47 -111zM340.003 156c0 38 -14.667 70.333 -44 97s-63.333 40 -102 40c-39.333 0 -73.833 -13.333 -103.5 -40s-44.5 -59 -44.5 -97h294zM242.003 401l-90 -62l-8 12l90 62z
" />
    <glyph glyph-name="ecircumflex" unicode="&#xea;" 
d="M354 150c0 -4.66699 -2.33008 -7 -6.99707 -7h-301c0 -40 14.667 -74.333 44 -103s64 -43 104 -43c62 0 106.333 28.667 133 86l2 6l12 -6l-2 -6c-12.667 -30 -31.834 -53.167 -57.501 -69.5s-54.834 -24.5 -87.501 -24.5c-44.667 0 -82.834 16.167 -114.501 48.5
s-47.5 71.5 -47.5 117.5c0 44 16 81.333 48 112s70 46 114 46s81.667 -15.333 113 -46s47 -67.667 47 -111zM340.003 156c0 38 -14.667 70.333 -44 97s-63.333 40 -102 40c-39.333 0 -73.833 -13.333 -103.5 -40s-44.5 -59 -44.5 -97h294zM285.003 352l-8 -12l-84 58
l-88 -59l-8 12l92 62h8z" />
    <glyph glyph-name="edieresis" unicode="&#xeb;" horiz-adv-x="383" 
d="M354 150c0 -4.66699 -2.33008 -7 -6.99707 -7h-301c0 -40 14.667 -74.333 44 -103s64 -43 104 -43c62 0 106.333 28.667 133 86l2 6l12 -6l-2 -6c-12.667 -30 -31.834 -53.167 -57.501 -69.5s-54.834 -24.5 -87.501 -24.5c-44.667 0 -82.834 16.167 -114.501 48.5
s-47.5 71.5 -47.5 117.5c0 44 16 81.333 48 112s70 46 114 46s81.667 -15.333 113 -46s47 -67.667 47 -111zM340.003 156c0 38 -14.667 70.333 -44 97s-63.333 40 -102 40c-39.333 0 -73.833 -13.333 -103.5 -40s-44.5 -59 -44.5 -97h294zM219.003 339h-14v38h14v-38z
M172.003 339h-14v38h14v-38z" />
    <glyph glyph-name="igrave" unicode="&#xec;" horiz-adv-x="156" 
d="M83 0h-14v308h14v-308zM132 351l-8 -12l-90 62l8 12z" />
    <glyph glyph-name="iacute" unicode="&#xed;" horiz-adv-x="156" 
d="M83 0h-14v308h14v-308zM130 402l-90 -62l-8 12l90 62z" />
    <glyph glyph-name="icircumflex" unicode="&#xee;" horiz-adv-x="134" 
d="M77 0h-14v308h14v-308zM162 353l-8 -12l-84 58l-88 -59l-8 12l92 62h8z" />
    <glyph glyph-name="idieresis" unicode="&#xef;" horiz-adv-x="124" 
d="M69 0h-14v308h14v-308zM95 340h-14v38h14v-38zM48 340h-14v38h14v-38z" />
    <glyph glyph-name="ntilde" unicode="&#xf1;" horiz-adv-x="280" 
d="M248 0h-14.001v207c0 16.667 -9.33301 33.667 -28 51c-20.667 19.333 -44 29 -70 29c-29.333 0 -53 -11.667 -71 -35c-6 -7.33301 -12.333 -19.333 -19 -36v-216h-14v292h14v-42c8.66699 14 19.334 25.333 32.001 34c16.667 11.333 36 17 58 17
c30 0 56.167 -10.333 78.5 -31s33.5 -41.667 33.5 -63v-207zM230.999 374c-3.33301 -8 -6.33496 -13.667 -9.00195 -17c-9.33301 -12 -21.666 -18 -36.999 -18c-13.333 0 -32 6 -56 18c-13.333 6.66699 -24.333 10 -33 10c-7.33301 0 -14.666 -3 -21.999 -9l-13 -13l-4 -5
l-10 10l4 5c7.33301 8 13.333 13.667 18 17c8.66699 6 17.667 9 27 9c14 0 33 -6 57 -18c13.333 -6.66699 24 -10 32 -10c12.667 0 21.667 3.66699 27 11c1.33301 2 3 6 5 12z" />
    <glyph glyph-name="ograve" unicode="&#xf2;" 
d="M194 314c50.667 0 90.667 -16.333 120 -49c26.667 -30 40 -66.667 40 -110c0 -44.667 -13.667 -82.334 -41 -113.001c-30 -34 -71 -51 -123 -51c-50.667 0 -90.667 16.333 -120 49c-26.667 30 -40 66.667 -40 110c0 44.667 13.667 82.334 41 113.001c30 34 71 51 123 51z
M194 300c-46.667 0 -84 -15.667 -112 -47c-24.667 -28 -37 -62.333 -37 -103c0 -39.333 12 -72.666 36 -99.999c26.667 -30 63 -45 109 -45c46.667 0 84 15.667 112 47c24.667 28 37 62.333 37 103c0 39.333 -12 72.666 -36 99.999c-26.667 30 -63 45 -109 45zM239 352
l-8 -12l-90 62l8 12z" />
    <glyph glyph-name="oacute" unicode="&#xf3;" horiz-adv-x="377" 
d="M192 314c50.667 0 90.667 -16.333 120 -49c26.667 -30 40 -66.667 40 -110c0 -44.667 -13.667 -82.334 -41 -113.001c-30 -34 -71 -51 -123 -51c-50.667 0 -90.667 16.333 -120 49c-26.667 30 -40 66.667 -40 110c0 44.667 13.667 82.334 41 113.001c30 34 71 51 123 51z
M192 300c-46.667 0 -84 -15.667 -112 -47c-24.667 -28 -37 -62.333 -37 -103c0 -39.333 12 -72.666 36 -99.999c26.667 -30 63 -45 109 -45c46.667 0 84 15.667 112 47c24.667 28 37 62.333 37 103c0 39.333 -12 72.666 -36 99.999c-26.667 30 -63 45 -109 45zM240 401
l-90 -62l-8 12l90 62z" />
    <glyph glyph-name="ocircumflex" unicode="&#xf4;" horiz-adv-x="381" 
d="M195 314c50.667 0 90.667 -16.333 120 -49c26.667 -30 40 -66.667 40 -110c0 -44.667 -13.667 -82.334 -41 -113.001c-30 -34 -71 -51 -123 -51c-50.667 0 -90.667 16.333 -120 49c-26.667 30 -40 66.667 -40 110c0 44.667 13.667 82.334 41 113.001c30 34 71 51 123 51z
M195 300c-46.667 0 -84 -15.667 -112 -47c-24.667 -28 -37 -62.333 -37 -103c0 -39.333 12 -72.666 36 -99.999c26.667 -30 63 -45 109 -45c46.667 0 84 15.667 112 47c24.667 28 37 62.333 37 103c0 39.333 -12 72.666 -36 99.999c-26.667 30 -63 45 -109 45zM281 352
l-8 -12l-84 58l-88 -59l-8 12l92 62h8z" />
    <glyph glyph-name="otilde" unicode="&#xf5;" 
d="M193 314c50.667 0 90.667 -16.333 120 -49c26.667 -30 40 -66.667 40 -110c0 -44.667 -13.667 -82.334 -41 -113.001c-30 -34 -71 -51 -123 -51c-50.667 0 -90.667 16.333 -120 49c-26.667 30 -40 66.667 -40 110c0 44.667 13.667 82.334 41 113.001c30 34 71 51 123 51z
M193 300c-46.667 0 -84 -15.667 -112 -47c-24.667 -28 -37 -62.333 -37 -103c0 -39.333 12 -72.666 36 -99.999c26.667 -30 63 -45 109 -45c46.667 0 84 15.667 112 47c24.667 28 37 62.333 37 103c0 39.333 -12 72.666 -36 99.999c-26.667 30 -63 45 -109 45zM280 374
c-3.33301 -8 -6.33496 -13.667 -9.00195 -17c-9.33301 -12 -21.666 -18 -36.999 -18c-13.333 0 -32 6 -56 18c-13.333 6.66699 -24.333 10 -33 10c-7.33301 0 -14.666 -3 -21.999 -9l-13 -13l-4 -5l-10 10l4 5c7.33301 8 13.333 13.667 18 17c8.66699 6 17.667 9 27 9
c14 0 33 -6 57 -18c13.333 -6.66699 24 -10 32 -10c12.667 0 21.667 3.66699 27 11c1.33301 2 3 6 5 12z" />
    <glyph glyph-name="odieresis" unicode="&#xf6;" horiz-adv-x="383" 
d="M196 314c50.667 0 90.667 -16.333 120 -49c26.667 -30 40 -66.667 40 -110c0 -44.667 -13.667 -82.334 -41 -113.001c-30 -34 -71 -51 -123 -51c-50.667 0 -90.667 16.333 -120 49c-26.667 30 -40 66.667 -40 110c0 44.667 13.667 82.334 41 113.001c30 34 71 51 123 51z
M196 300c-46.667 0 -84 -15.667 -112 -47c-24.667 -28 -37 -62.333 -37 -103c0 -39.333 12 -72.666 36 -99.999c26.667 -30 63 -45 109 -45c46.667 0 84 15.667 112 47c24.667 28 37 62.333 37 103c0 39.333 -12 72.666 -36 99.999c-26.667 30 -63 45 -109 45zM223 339h-14
v38h14v-38zM176 339h-14v38h14v-38z" />
    <glyph glyph-name="divide" unicode="&#xf7;" horiz-adv-x="451" 
d="M270 238c0 -13.333 -4.66504 -24.668 -13.998 -34.001s-21 -14 -35 -14c-13.333 0 -24.5 4.83301 -33.5 14.5s-13.5 21.167 -13.5 34.5c0 12.667 4.66699 23.667 14 33s20.666 14 33.999 14s24.666 -4.66699 33.999 -14s14 -20.666 14 -33.999zM422.002 130.998h-394v14
h394v-14zM269.002 39.998c0 -13.333 -4.49902 -24.834 -13.499 -34.501s-20.5 -14.5 -34.5 -14.5c-13.333 0 -24.5 4.83301 -33.5 14.5s-13.5 21.5 -13.5 35.5c0 13.333 4.5 24.5 13.5 33.5s20.167 13.5 33.5 13.5s24.666 -4.66699 33.999 -14s14 -20.666 14 -33.999z
M256.003 237.997c0 9.33301 -3.33203 17.333 -9.99902 24s-14.667 10 -24 10s-17.333 -3 -24 -9s-10 -14 -10 -24c0 -9.33301 3.16699 -17.5 9.5 -24.5s14.166 -10.5 23.499 -10.5s17.5 3.33301 24.5 10s10.5 14.667 10.5 24zM255.004 39.9971
c0 9.33301 -3.33301 17.332 -10 23.999s-14.667 10 -24 10s-17.166 -3.16699 -23.499 -9.5s-9.5 -14.166 -9.5 -23.499c0 -10 3.16699 -18.5 9.5 -25.5s14.166 -10.5 23.499 -10.5s17.333 3.33301 24 10s10 15 10 25z" />
    <glyph glyph-name="oslash" unicode="&#xf8;" 
d="M305 336l-24.999 -46.001c22.667 -13.333 40.167 -32.5 52.5 -57.5s18.5 -51.167 18.5 -78.5c0 -44.667 -13.333 -82 -40 -112c-30 -34 -71 -51 -123 -51c-14 0 -25.833 0.833008 -35.5 2.5s-20.5 5.16699 -32.5 10.5l-21 -38l-8 4l20 37c-26 13.333 -46.167 33 -60.5 59
s-21.5 54 -21.5 84c0 44 13.667 81.667 41 113c30 34 70.667 51 122 51c14.667 0 28.667 -1.66699 42 -5s25.666 -7.66602 36.999 -12.999l25 44zM264.001 282.999c-19.333 11.333 -43.333 17 -72 17c-46.667 0 -84 -15.667 -112 -47c-25.333 -28.667 -38 -63 -38 -103
c0 -27.333 6.66699 -52.833 20 -76.5s32.333 -41.5 57 -53.5zM273.001 277.999l-145.999 -262c15.333 -7.33301 35.666 -11 60.999 -11c46.667 0 84 15.667 112 47c24.667 28 37 62.333 37 103c0 25.333 -5.16699 48.833 -15.5 70.5s-26.5 39.167 -48.5 52.5z" />
    <glyph glyph-name="ugrave" unicode="&#xf9;" horiz-adv-x="277" 
d="M247 112c0 -29.333 -6.66797 -55 -20.001 -77c-18.667 -30.667 -48 -46 -88 -46c-31.333 0 -57.166 11.833 -77.499 35.5s-30.5 52.834 -30.5 87.501v180h14v-180c0 -32 8.5 -58.167 25.5 -78.5s39.833 -30.5 68.5 -30.5c34.667 0 60 13 76 39
c12 19.333 18 42.666 18 69.999v180h14v-180zM189.999 352l-8 -12l-90 62l8 12z" />
    <glyph glyph-name="uacute" unicode="&#xfa;" horiz-adv-x="278" 
d="M247 112c0 -29.333 -6.66797 -55 -20.001 -77c-18.667 -30.667 -48 -46 -88 -46c-31.333 0 -57.166 11.833 -77.499 35.5s-30.5 52.834 -30.5 87.501v180h14v-180c0 -32 8.5 -58.167 25.5 -78.5s39.833 -30.5 68.5 -30.5c34.667 0 60 13 76 39
c12 19.333 18 42.666 18 69.999v180h14v-180zM193.999 401l-90 -62l-8 12l90 62z" />
    <glyph glyph-name="ucircumflex" unicode="&#xfb;" horiz-adv-x="278" 
d="M247 112c0 -29.333 -6.66797 -55 -20.001 -77c-18.667 -30.667 -48 -46 -88 -46c-31.333 0 -57.166 11.833 -77.499 35.5s-30.5 52.834 -30.5 87.501v180h14v-180c0 -32 8.5 -58.167 25.5 -78.5s39.833 -30.5 68.5 -30.5c34.667 0 60 13 76 39
c12 19.333 18 42.666 18 69.999v180h14v-180zM230.999 352l-8 -12l-84 58l-88 -59l-8 12l92 62h8z" />
    <glyph glyph-name="udieresis" unicode="&#xfc;" horiz-adv-x="276" 
d="M247 112c0 -29.333 -6.66797 -55 -20.001 -77c-18.667 -30.667 -48 -46 -88 -46c-31.333 0 -57.166 11.833 -77.499 35.5s-30.5 52.834 -30.5 87.501v180h14v-180c0 -32 8.5 -58.167 25.5 -78.5s39.833 -30.5 68.5 -30.5c34.667 0 60 13 76 39
c12 19.333 18 42.666 18 69.999v180h14v-180zM172.999 341h-14v38h14v-38zM125.999 341h-14v38h14v-38z" />
    <glyph glyph-name="ydieresis" unicode="&#xff;" horiz-adv-x="299" 
d="M267 291l-163 -417l-14 6l48 122l-109 290l14 4l103 -274l107 275zM183 313h-14v38h14v-38zM136 313h-14v38h14v-38z" />
    <glyph glyph-name="OE" unicode="&#x152;" horiz-adv-x="714" 
d="M694 14h-175.001c-4.66699 0 -7 2.33301 -7 7v128c-17.333 -47.333 -44.333 -84.666 -81 -111.999c-41.333 -30.667 -91.666 -46 -150.999 -46c-78.667 0 -141 26 -187 78c-42 47.333 -63 105 -63 173c0 66.667 20.333 123 61 169c45.333 51.333 107 77 185 77
c60.667 0 112 -15.667 154 -47c38.667 -28.667 66 -67.334 82 -116.001v145c0 4.66699 2.33301 7 7 7h172v-14h-165v-206h163v-14h-163v-215h168v-14zM279.999 5c74 0 132.333 24 175 72c38.667 43.333 58 96.666 58 159.999c0 64.667 -19.667 119 -59 163
c-44 49.333 -103.333 74 -178 74c-74 0 -132.333 -24 -175 -72c-38.667 -43.333 -58 -96.666 -58 -159.999c0 -64.667 19.667 -119 59 -163c44 -49.333 103.333 -74 178 -74z" />
    <glyph glyph-name="oe" unicode="&#x153;" horiz-adv-x="681" 
d="M664 158c0 -4.66699 -2.3291 -7 -6.99609 -7h-301c0 -40 14.667 -74.333 44 -103s64 -43 104 -43c62 0 106.333 28.667 133 86l2 6l12 -6l-2 -6c-12.667 -30 -31.834 -53.167 -57.501 -69.5s-54.834 -24.5 -87.501 -24.5c-36.667 0 -69.334 11.167 -98.001 33.5
s-48 51.166 -58 86.499c-8.66699 -34.667 -25.667 -62.667 -51 -84c-28.667 -24 -64.334 -36 -107.001 -36c-50.667 0 -90.667 16.333 -120 49c-26.667 30 -40 66.667 -40 110c0 44.667 13.667 82.334 41 113.001c30 34 71 51 123 51c40.667 0 75 -11.333 103 -34
c25.333 -20.667 42.333 -47.667 51 -81c10 34 29.5 61.833 58.5 83.5s61.5 32.5 97.5 32.5c44 0 81.667 -15.333 113 -46s47 -67.667 47 -111zM650.004 164c0 38 -14.667 70.333 -44 97s-63.333 40 -102 40c-39.333 0 -73.833 -13.333 -103.5 -40s-44.5 -59 -44.5 -97h294z
M194.004 300c-46.667 0 -84 -15.667 -112 -47c-24.667 -28 -37 -62.333 -37 -103c0 -39.333 12 -72.666 36 -99.999c26.667 -30 63 -45 109 -45c46.667 0 84 15.667 112 47c24.667 28 37 62.333 37 103c0 39.333 -12 72.666 -36 99.999c-26.667 30 -63 45 -109 45z" />
    <glyph glyph-name="Ydieresis" unicode="&#x178;" horiz-adv-x="348" 
d="M308 450l-130 -238v-212h-14v211l-131 239l12 6l126 -229l125 229zM204 491h-14v38h14v-38zM157 491h-14v38h14v-38z" />
    <glyph glyph-name="florin" unicode="&#x192;" horiz-adv-x="337" 
d="M304 500c-5.33301 -15.333 -15.998 -23.002 -31.998 -23.002c-3.33301 0 -6.66602 1.33301 -9.99902 4c-6 5.33301 -9.66699 8.33301 -11 9c-8.66699 4.66699 -15.334 -2.33301 -20.001 -21l-16 -110l-3 -12h62l-3 -26h-66l-37 -188c-10.667 -50 -22 -89 -34 -117
c-21.333 -50.667 -46 -76 -74 -76c-2.66699 0 -7.33398 0.833008 -14.001 2.5s-11.834 5.33398 -15.501 11.001s-4.16699 11.5 -1.5 17.5c4.66699 15.333 14.334 23 29.001 23c4.66699 0 9 -3.33301 13 -10c2 -4 4.66699 -6.33301 8 -7c13.333 -4 24.666 16.667 33.999 62
c6 31.333 10 53.333 12 66l44 217h-68l1 25h76l4 17c12.667 60.667 27.667 104.334 45 131.001c14.667 22.667 31 34 49 34c8 0 15.333 -3 22 -9s8.66699 -12.667 6 -20z" />
    <glyph glyph-name="Sigma" unicode="&#x3a3;" horiz-adv-x="497" 
d="M461 93c-8 -24 -14.167 -47.999 -18.5 -71.999s-6.5 -46.333 -6.5 -67l-45 9h-359l223 244l-219 274l41 -4h340l1 -101h-14c0 23.333 -7.66699 41.666 -23 54.999c-8 8 -16.167 12.833 -24.5 14.5s-20.5 2.5 -36.5 2.5h-184l177 -213l-189 -212h252c14 0 27 4.5 39 13.5
s20.5 17.833 25.5 26.5s7.5 18.667 7.5 30h13z" />
    <glyph glyph-name="uni03A9" unicode="&#x3a9;" horiz-adv-x="516" 
d="M479 -1l-183.999 -0.000976562l9 91c29.333 13.333 51.166 32.666 65.499 57.999s21.5 55 21.5 89c0 42.667 -8 74.667 -24 96c-20.667 27.333 -56.334 41 -107.001 41c-46.667 0 -81.334 -13.333 -104.001 -40c-19.333 -23.333 -29 -55.666 -29 -96.999
c0 -34.667 7 -64.5 21 -89.5s36 -44.167 66 -57.5l9 -91h-184v96h12c-0.666992 -7.33301 1 -14.666 5 -21.999c8 -10.667 19 -16 33 -16h101v19c-40 6.66699 -72.5 25.167 -97.5 55.5s-37.5 65.833 -37.5 106.5c0 48.667 18.833 86.667 56.5 114s86.834 41 147.501 41
c63.333 0 113 -13.5 149 -40.5s54 -65.167 54 -114.5c0 -40.667 -12.333 -76.167 -37 -106.5s-57 -48.833 -97 -55.5v-19h101c14.667 0 25.334 5.33301 32.001 16c4.66699 6.66699 6.66699 14 6 22h12v-96z" />
    <glyph glyph-name="pi" unicode="&#x3c0;" horiz-adv-x="423" 
d="M383 100l-2 -15c-3.33301 -26 -12.666 -48.167 -27.999 -66.5s-34.666 -27.5 -57.999 -27.5c-20.667 0 -35.667 9.83301 -45 29.5s-14 43.834 -14 72.501c0 8 0.666992 18 2 30l16 144h-79l-27 -212c-2.66699 -18.667 -8 -34.334 -16 -47.001
c-10.667 -15.333 -23 -21 -37 -17c-8 2.66699 -14.333 5.66699 -19 9s-7.5 7.33301 -8.5 12s-1.5 9.33398 -1.5 14.001c0 7.33301 3.33301 15 10 23c19.333 22.667 30.166 36.5 32.499 41.5l6.5 14.5c2 4.66699 3.33301 9.66699 4 15l15 145h-22
c-14.667 0 -25.5 -1.5 -32.5 -4.5s-13.833 -8.33301 -20.5 -16s-10.667 -13.834 -12 -18.501l-11 4l4 9c11.333 25.333 17.666 39.333 18.999 42c8 13.333 18.833 23.5 32.5 30.5s28.5 10.5 44.5 10.5h242v-55h-88l-8 -160c0 -15.333 3.83301 -28.666 11.5 -39.999
s18.167 -17 31.5 -17c10.667 0 19.667 3.66699 27 11s12.333 16.666 15 27.999l3 11h13z" />
    <glyph glyph-name="uni0401" unicode="&#x401;" horiz-adv-x="242" 
d="M212 0h-175c-4.66699 -0 -7 2.33301 -7 7v440c0 4.66699 2.33301 7 7 7h172v-14h-165v-201h163v-14h-163v-211h168v-14zM150 491h-14v38h14v-38zM103 491h-14v38h14v-38z" />
    <glyph glyph-name="uni0404" unicode="&#x404;" horiz-adv-x="469" 
d="M443 54l-4.99902 -4c-46 -39.333 -99.333 -59 -160 -59c-67.333 0 -125.333 24.333 -174 73s-73 107 -73 175c0 66.667 24.333 123.667 73 171s106.667 71 174 71c30 0 58.333 -5 85 -15c22 -8 44 -20 66 -36l5 -3l-8 -12l-5 3c-18.667 14 -40.334 25.667 -65.001 35
s-50.667 14 -78 14c-62.667 0 -117.334 -22.667 -164.001 -68c-42.667 -41.333 -65.667 -90.333 -69 -147h260v-14h-260c0 -63.333 22.667 -118 68 -164c46 -46 101 -69 165 -69c56.667 0 107.334 18.333 152.001 55l5 4z" />
    <glyph glyph-name="uni0410" unicode="&#x410;" horiz-adv-x="350" 
d="M320 4l-14.001 -4l-63 214h-131l-62 -214l-14 4l134 461c0 2 2 3 6 3c4.66699 0 7.33398 -1 8.00098 -3zM238.999 228l-62 210l-61 -210h123z" />
    <glyph glyph-name="uni0411" unicode="&#x411;" horiz-adv-x="273" 
d="M242 119c0 -38 -12.499 -67.333 -37.499 -88s-55.833 -31 -92.5 -31h-77c-4.66699 -0 -7 2.33301 -7 7v443c0 4.66699 2.33301 7 7 7h188v-14h-181v-194h75l38 -6h-2c25.333 -8 45.666 -21.333 60.999 -40c18.667 -22.667 28 -50.667 28 -84zM42.001 235v-221.001h70
c34 0 61.833 8.83301 83.5 26.5s32.5 43.834 32.5 78.501c0 43.333 -16 75.333 -48 96c-20.667 13.333 -41.667 20 -63 20h-75z" />
    <glyph glyph-name="uni0412" unicode="&#x412;" horiz-adv-x="273" 
d="M242 119c0 -38 -12.499 -67.335 -37.499 -88.002s-55.833 -31 -92.5 -31h-77c-4.66699 0 -7 2.33301 -7 7v443c0 4.66699 2.33301 7 7 7h85c26.667 0 51 -10 73 -30s33 -44.667 33 -74c0 -23.333 -7 -45.666 -21 -66.999s-31.333 -35.666 -52 -42.999
c25.333 -8 45.666 -21.333 60.999 -40c18.667 -22.667 28 -50.667 28 -84zM212.001 352.998c0 24.667 -9.66699 45.833 -29 63.5s-40.333 26.5 -63 26.5h-78v-194h71c26 0 49 10.667 69 32s30 45.333 30 72zM113.001 234.997l-71 -0.000976562v-221h70
c34 0 61.833 8.83301 83.5 26.5s32.5 43.834 32.5 78.501c0 43.333 -16 75.333 -48 96c-20.667 13.333 -41.667 20 -63 20h-4z" />
    <glyph glyph-name="uni0413" unicode="&#x413;" horiz-adv-x="224" 
d="M189 440h-145v-440h-14v447c0 4.66699 2.33301 7 7 7h152v-14z" />
    <glyph glyph-name="uni0414" unicode="&#x414;" horiz-adv-x="356" 
d="M342 -105h-14v105h-297v-105h-14v119h32c8 16.667 17.667 45.667 29 87c16 58 28 175.667 36 353h195c4.66699 0 7 -2.33301 7 -7v-433h26v-119zM128 440c-8 -168 -20 -281.667 -36 -341c-11.333 -40.667 -20.333 -69 -27 -85h237v426h-174z" />
    <glyph glyph-name="uni0415" unicode="&#x415;" horiz-adv-x="237" 
d="M212 0h-175c-4.66699 -0 -7 2.33301 -7 7v440c0 4.66699 2.33301 7 7 7h172v-14h-165v-201h163v-14h-163v-211h168v-14z" />
    <glyph glyph-name="uni0416" unicode="&#x416;" horiz-adv-x="545" 
d="M518 9l-10 -10l-227 223v-222h-15v222l-227 -223l-10 10l231 227l-207 210l10 10l203 -206v204h15v-204l203 206l10 -10l-207 -210z" />
    <glyph glyph-name="uni0417" unicode="&#x417;" horiz-adv-x="329" 
d="M120 251l56.998 -0.000976562v-1c20.667 4.66699 38.334 15.334 53.001 32.001c17.333 20 26 43.333 26 70c0 28 -10.5 52.167 -31.5 72.5s-45.833 30.5 -74.5 30.5c-26 0 -48.167 -7.83301 -66.5 -23.5s-29.5 -36.167 -33.5 -61.5l-1 -7l-14 2l1 7
c4.66699 28 17.834 51.167 39.501 69.5s46.5 27.5 74.5 27.5c32.667 0 60.834 -11.5 84.501 -34.5s35.5 -50.5 35.5 -82.5c0 -24 -6.16699 -45.5 -18.5 -64.5s-29.5 -33.5 -51.5 -43.5c26 -6.66699 47 -18 63 -34c24 -23.333 36 -54.333 36 -93
c0 -37.333 -13 -69.333 -39 -96s-57.667 -40 -95 -40c-34 0 -63.833 11.333 -89.5 34s-40.167 51 -43.5 85v7l14 2v-7c3.33301 -31.333 16 -57 38 -77s49 -30 81 -30c33.333 0 61.666 12 84.999 36s35 52.667 35 86c0 48.667 -19.333 83 -58 103
c-10.667 4.66699 -26 9 -46 13h-61v18z" />
    <glyph glyph-name="uni0418" unicode="&#x418;" horiz-adv-x="342" 
d="M32 454h14v-427l253 433c0 2 1.66699 2.66699 5 2c5.33301 -0.666992 8 -2.66699 8 -6v-456h-14v430l-253 -433c0 -2 -1.66699 -2.66699 -5 -2c-5.33301 0.666992 -8 2.66699 -8 6v453z" />
    <glyph glyph-name="uni0419" unicode="&#x419;" horiz-adv-x="342" 
d="M32 454h14v-427l253 433c0 2 1.66699 2.66699 5 2c5.33301 -0.666992 8 -2.66699 8 -6v-456h-14v430l-253 -433c0 -2 -1.66699 -2.66699 -5 -2c-5.33301 0.666992 -8 2.66699 -8 6v453zM157 457c-10 2.66699 -18.667 8.33398 -26 17.001
c-2.66699 3.33301 -5.66699 9 -9 17l14 2c2 -6 3.66699 -10 5 -12c3.33301 -5.33301 8.33301 -8.66602 15 -9.99902h49c6.66699 1.33301 12 4.66602 16 9.99902c1.33301 2 3 6 5 12l14 -2c-3.33301 -8 -6.33301 -13.667 -9 -17c-7.33301 -8.66699 -16 -14.334 -26 -17.001
v-1h-6h-3h-39v1z" />
    <glyph glyph-name="uni041A" unicode="&#x41a;" horiz-adv-x="310" 
d="M280 9l-10 -10l-227 223v-222h-14v454h14v-204l203 206l10 -10l-207 -210z" />
    <glyph glyph-name="uni041B" unicode="&#x41b;" horiz-adv-x="300" 
d="M93 440c-8 -168 -20 -281.5 -36 -340.5s-27.667 -92.167 -35 -99.5h-16c9.33301 10 21.833 43.833 37.5 101.5s27.5 175.167 35.5 352.5h195c4.66699 0 7 -2.33301 7 -7v-447h-14v440h-174v0z" />
    <glyph glyph-name="uni041C" unicode="&#x41c;" horiz-adv-x="531" 
d="M504 2l-14 -2l-83 434l-135 -322c0 -3.33301 -2.66699 -4.33301 -8 -3c-2.66699 0.666992 -4 1.66699 -4 3l-141 322l-75 -434l-14 2l79 457c0 2.66699 2 4.33398 6 5.00098c4.66699 0.666992 7 -0.333008 7 -3l144 -329l138 329c0 2.66699 2 3.66699 6 3
c4.66699 -0.666992 7 -2.33398 7 -5.00098z" />
    <glyph glyph-name="uni041D" unicode="&#x41d;" horiz-adv-x="322" 
d="M295 0h-14v225h-235v-225h-14v454h14v-215h235v215h14v-454z" />
    <glyph glyph-name="uni041E" unicode="&#x41e;" horiz-adv-x="553" 
d="M280 -9c-78.667 0 -141 26 -187 78c-42 47.333 -63 105 -63 173c0 66.667 20.333 123 61 169c45.333 51.333 107 77 185 77c78.667 0 141 -26 187 -78c42 -47.333 63 -105 63 -173c0 -66.667 -20.333 -123 -61 -169c-45.333 -51.333 -107 -77 -185 -77zM280 5
c74 0 132.333 24 175 72c38.667 43.333 58 96.666 58 159.999c0 64.667 -19.667 119 -59 163c-44 49.333 -103.333 74 -178 74c-74 0 -132.333 -24 -175 -72c-38.667 -43.333 -58 -96.666 -58 -159.999c0 -64.667 19.667 -119 59 -163c44 -49.333 103.333 -74 178 -74z" />
    <glyph glyph-name="uni041F" unicode="&#x41f;" horiz-adv-x="322" 
d="M295 0h-14v440h-235v-440h-14v454h263v-454z" />
    <glyph glyph-name="uni0420" unicode="&#x420;" horiz-adv-x="231" 
d="M201 335c0 -32.667 -11 -61.333 -33 -86s-49.333 -37 -82 -37h-44v-212h-14v447c0 4.66699 2.33301 7 7 7h30c36 0 67.667 -11.167 95 -33.5s41 -50.833 41 -85.5zM187 335.001c0 30 -12.167 55 -36.5 75s-52.833 30 -85.5 30h-23v-214h44c28 0 51.833 10.833 71.5 32.5
s29.5 47.167 29.5 76.5z" />
    <glyph glyph-name="uni0421" unicode="&#x421;" horiz-adv-x="469" 
d="M443 54l-5 -4.00098c-46 -39.333 -99.333 -59 -160 -59c-67.333 0 -125.333 24.333 -174 73s-73 107 -73 175c0 66.667 24.333 123.667 73 171s106.667 71 174 71c30 0 58.333 -5 85 -15c22 -8 44 -20 66 -36l5 -3l-8 -12l-5 3c-18.667 14 -40.334 25.667 -65.001 35
s-50.667 14 -78 14c-62.667 0 -117.167 -22.5 -163.5 -67.5s-69.5 -98.5 -69.5 -160.5c0 -63.333 22.833 -118.166 68.5 -164.499s100.5 -69.5 164.5 -69.5c56.667 0 107.334 18.333 152.001 55l5 4z" />
    <glyph glyph-name="uni0422" unicode="&#x422;" horiz-adv-x="289" 
d="M257 440h-107v-440h-14v440h-104v14h225v-14z" />
    <glyph glyph-name="uni0423" unicode="&#x423;" horiz-adv-x="340" 
d="M315 451l-217 -448c0 -2.66699 -2.33301 -4 -7 -4s-7 1.33301 -7 4l7 20l78 161l-137 267l14 4l132 -253l36 74l87 179z" />
    <glyph glyph-name="uni0424" unicode="&#x424;" horiz-adv-x="389" 
d="M27 246c0 32.667 11 61.334 33 86.001s49.333 37 82 37h44v85h14v-85h23c36 0 67.667 -11.167 95 -33.5s41 -50.833 41 -85.5c0 -32.667 -11 -61.334 -33 -86.001s-49.333 -37 -82 -37h-44v-127h-14v127h-23c-36 0 -67.667 11.167 -95 33.5s-41 50.833 -41 85.5zM345 250
c0 30 -12.167 55 -36.5 75s-52.833 30 -85.5 30h-23v-214h44c28 0 51.833 10.833 71.5 32.5s29.5 47.167 29.5 76.5zM41 246c0 -30 12.167 -55 36.5 -75s52.833 -30 85.5 -30h23v214h-44c-28 0 -51.833 -10.833 -71.5 -32.5s-29.5 -47.167 -29.5 -76.5z" />
    <glyph glyph-name="uni0425" unicode="&#x425;" horiz-adv-x="349" 
d="M320 6l-12 -6l-137 239l-129 -239l-12 6l133 247l-115 199l12 6l110 -191l103 191l12 -6l-107 -199z" />
    <glyph glyph-name="uni0426" unicode="&#x426;" horiz-adv-x="368" 
d="M32 454h14v-440h235v440h14v-440h47v-119h-14v105h-296v454z" />
    <glyph glyph-name="uni0427" unicode="&#x427;" horiz-adv-x="231" 
d="M42 329c1.33301 -27.333 11 -50.999 29 -70.999c20 -21.333 44 -32 72 -32h44v228h7c4.66699 0 7 -2.33301 7 -7v-447h-14v212h-44c-32.667 0 -60 12.333 -82 37c-21.333 23.333 -32.333 50.666 -33 81.999c-1.33301 0.666992 -2 3 -2 7v115h16v-124z" />
    <glyph glyph-name="uni0428" unicode="&#x428;" horiz-adv-x="428" 
d="M395 0h-363v454h14v-440h158v440h14v-440h163v440h14v-454z" />
    <glyph glyph-name="uni0429" unicode="&#x429;" horiz-adv-x="453" 
d="M32 0v454h14v-440h158v440h14v-440h163v440h14v-440h32v-119h-14v105h-381z" />
    <glyph glyph-name="uni042A" unicode="&#x42a;" horiz-adv-x="299" 
d="M21 457h47.001v-208h75l38 -6h-2c25.333 -8 45.666 -21.333 60.999 -40c18.667 -22.667 28 -50.667 28 -84c0 -38 -12.5 -67.333 -37.5 -88s-55.833 -31 -92.5 -31h-77c-4.66699 -0 -7 2.33301 -7 7v437h-33v13zM68.001 235v-221.001h70c34 0 61.833 8.83301 83.5 26.5
s32.5 43.834 32.5 78.501c0 43.333 -16 75.333 -48 96c-20.667 13.333 -41.667 20 -63 20h-75z" />
    <glyph glyph-name="uni042B" unicode="&#x42b;" horiz-adv-x="299" 
d="M242 119c0 -38 -12.499 -67.333 -37.499 -88s-55.833 -31 -92.5 -31h-77c-4.66699 -0 -7 2.33301 -7 7v443c0 4.66699 2.33301 7 7 7h7v-208h75l38 -6h-2c25.333 -8 45.666 -21.333 60.999 -40c18.667 -22.667 28 -50.667 28 -84zM42.001 235v-221.001h70
c34 0 61.833 8.83301 83.5 26.5s32.5 43.834 32.5 78.501c0 43.333 -16 75.333 -48 96c-20.667 13.333 -41.667 20 -63 20h-75zM280.001 -0.000976562h-14v454h14v-454z" />
    <glyph glyph-name="uni042C" unicode="&#x42c;" horiz-adv-x="273" 
d="M242 119c0 -38 -12.499 -67.333 -37.499 -88s-55.833 -31 -92.5 -31h-77c-4.66699 -0 -7 2.33301 -7 7v443c0 4.66699 2.33301 7 7 7h7v-208h75l38 -6h-2c25.333 -8 45.666 -21.333 60.999 -40c18.667 -22.667 28 -50.667 28 -84zM42.001 235v-221.001h70
c34 0 61.833 8.83301 83.5 26.5s32.5 43.834 32.5 78.501c0 43.333 -16 75.333 -48 96c-20.667 13.333 -41.667 20 -63 20h-75z" />
    <glyph glyph-name="uni042D" unicode="&#x42d;" horiz-adv-x="469" 
d="M39 64l5.00098 -4c44.667 -36.667 95.334 -55 152.001 -55c64 0 119 23 165 69c45.333 46 68 100.667 68 164h-260v14h260c-3.33301 56.667 -26.333 105.667 -69 147c-46.667 45.333 -101.334 68 -164.001 68c-27.333 0 -53.333 -4.66699 -78 -14
s-46.334 -21 -65.001 -35l-5 -3l-8 12l5 3c22 16 44 28 66 36c26.667 10 55 15 85 15c67.333 0 125.333 -23.667 174 -71s73 -104.333 73 -171c0 -68 -24.333 -126.333 -73 -175s-106.667 -73 -174 -73c-60.667 0 -114 19.667 -160 59l-5 4z" />
    <glyph glyph-name="uni042E" unicode="&#x42e;" horiz-adv-x="628" 
d="M361 -9c-78.667 0 -141 26 -187 78c-38.667 43.333 -59.667 95.333 -63 156h-65v-225h-14v454h14v-215h65v3c0 66.667 20.333 123 61 169c45.333 51.333 107 77 185 77c78.667 0 141 -26 187 -78c42 -47.333 63 -105 63 -173c0 -66.667 -20.333 -123 -61 -169
c-45.333 -51.333 -107 -77 -185 -77zM361 5c74 0 132.333 24 175 72c38.667 43.333 58 96.666 58 159.999c0 64.667 -19.667 119 -59 163c-44 49.333 -103.333 74 -178 74c-74 0 -132.333 -24 -175 -72c-38.667 -43.333 -58 -96.666 -58 -159.999
c0 -64.667 19.667 -119 59 -163c44 -49.333 103.333 -74 178 -74z" />
    <glyph glyph-name="uni042F" unicode="&#x42f;" horiz-adv-x="246" 
d="M50 325c0 -28 10.334 -52.667 31.001 -74s44.667 -32 72 -32h46v221h-32c-36.667 0 -65.334 -11 -86.001 -33s-31 -49.333 -31 -82zM180.001 205l-27 -0.000976562c-32 0 -59.5 11.833 -82.5 35.5s-34.5 51.834 -34.5 84.501c0 36 11.833 66.5 35.5 91.5
s55.5 37.5 95.5 37.5h39c4.66699 0 7 -2.33301 7 -7v-447h-14v205l-158 -207l-12 8z" />
    <glyph glyph-name="uni0430" unicode="&#x430;" horiz-adv-x="380" 
d="M356 0h-13.999v70c-12 -27.333 -30.333 -49.5 -55 -66.5s-55 -25.5 -91 -25.5c-50.667 0 -91 16.667 -121 50c-27.333 30.667 -41 68 -41 112s13 80.667 39 110c29.333 33.333 69.666 50 120.999 50c36 0 66.667 -8.66699 92 -26s44 -40 56 -68v86h14v-292zM196.001 -8
c46 0 82.333 15 109 45c24.667 27.333 37 61 37 101c0 40.667 -12 74.667 -36 102c-26.667 30.667 -64 46 -112 46c-46 0 -81.833 -14.333 -107.5 -43s-38.5 -63 -38.5 -103c0 -40.667 12 -74.667 36 -102c26.667 -30.667 64 -46 112 -46z" />
    <glyph glyph-name="uni0431" unicode="&#x431;" horiz-adv-x="381" 
d="M312 453c1.33301 -3.33301 1.66797 -6.99512 1.00098 -10.9951c-0.666992 -15.333 -7.33398 -27.333 -20.001 -36c-10.667 -8 -29.334 -13.667 -56.001 -17c-98.667 -6.66699 -151.667 -12.334 -159 -17.001c-6 -4 -10.333 -10.667 -13 -20l-3 -18l-9 -98
c5.33301 9.33301 12 18.333 20 27c30 34 71 51 123 51c50.667 0 90.667 -16.333 120 -49c26.667 -30 40 -66.667 40 -110c0 -44.667 -13.667 -82.334 -41 -113.001c-30 -34 -71 -51 -123 -51c-50.667 0 -90.667 16.333 -120 49c-26.667 30 -40 66.667 -40 110
c0 17.333 1.33301 30.666 4 39.999l1 9l11 137c1.33301 11.333 3 19.666 5 24.999c4 10 9.66699 17.333 17 22c11.333 8 72.333 16 183 24c14.667 2 25.334 5.33301 32.001 10c10.667 7.33301 16 15.666 16 24.999c0 2 -1 6 -3 12zM196.002 300.005
c-46.667 0 -84 -15.667 -112 -47c-24.667 -28 -37 -62.333 -37 -103c0 -39.333 12 -72.666 36 -99.999c26.667 -30 63 -45 109 -45c46.667 0 84 15.667 112 47c24.667 28 37 62.333 37 103c0 39.333 -12 72.666 -36 99.999c-26.667 30 -63 45 -109 45z" />
    <glyph glyph-name="uni0432" unicode="&#x432;" horiz-adv-x="196" 
d="M128 186c-5.33301 -4 -12 -7.33496 -20 -10.002c16.667 -4 33.667 -11.833 51 -23.5s26 -30.167 26 -55.5v-7c0 -25.333 -8.66699 -48.666 -26 -69.999c-16.667 -16 -57.667 -22.667 -123 -20v292h13v1h2c38 0 64.333 -5.5 79 -16.5s22 -25.167 22 -42.5v-5
c0 -17.333 -8 -31.666 -24 -42.999zM149 29.998c14.667 18.667 22 38.667 22 60v7c0 21.333 -9.33301 38.5 -28 51.5s-49.667 19.5 -93 19.5v-153c52 -3.33301 85 1.66699 99 15zM77 180.998c16.667 0.666992 30.001 4.66699 40.001 12c14 9.33301 20 21.333 18 36v5
c0 14.667 -5.33301 26 -16 34s-33.334 12 -68.001 12h-1v-98c10 0 19 -0.333008 27 -1z" />
    <glyph glyph-name="uni0433" unicode="&#x433;" horiz-adv-x="168" 
d="M137 278h-91v-278h-14v292h105v-14z" />
    <glyph glyph-name="uni0434" unicode="&#x434;" horiz-adv-x="265" 
d="M14 14h11c4 2 7.33301 4.66699 10 8c11.333 11.333 17 26 17 44v226h181v-278h12v-61h-14v47h-203v-47h-14v61zM45 14h174v264h-153v-212c0 -20 -7 -37.333 -21 -52z" />
    <glyph glyph-name="uni0435" unicode="&#x435;" horiz-adv-x="381" 
d="M354 150c0 -4.66699 -2.33008 -7 -6.99707 -7h-301c0 -40 14.667 -74.333 44 -103s64 -43 104 -43c62 0 106.333 28.667 133 86l2 6l12 -6l-2 -6c-12.667 -30 -31.834 -53.167 -57.501 -69.5s-54.834 -24.5 -87.501 -24.5c-44.667 0 -82.834 16.167 -114.501 48.5
s-47.5 71.5 -47.5 117.5c0 44 16 81.333 48 112s70 46 114 46s81.667 -15.333 113 -46s47 -67.667 47 -111zM340.003 156c0 38 -14.667 70.333 -44 97s-63.333 40 -102 40c-39.333 0 -73.833 -13.333 -103.5 -40s-44.5 -59 -44.5 -97h294z" />
    <glyph glyph-name="uni0436" unicode="&#x436;" horiz-adv-x="385" 
d="M171 139l-142 146l10 10l144 -148v146h14v-146l144 148l10 -10l-142 -146l145 -131l-10 -10l-147 133v-131h-14v131l-147 -133l-10 10z" />
    <glyph glyph-name="uni0437" unicode="&#x437;" horiz-adv-x="226" 
d="M101 165c20 6 38.666 14.998 55.999 26.998c11.333 12 17 26.333 17 43c0 18 -6.5 33.167 -19.5 45.5s-28.167 18.5 -45.5 18.5c-21.333 0 -38.333 -9.33301 -51 -28l-4 -6l-12 8l4 6c14.667 22.667 35.667 34 63 34c22 0 40.667 -7.66699 56 -23s23 -33.666 23 -54.999
c0 -20 -7 -37.333 -21 -52c-9.33301 -10 -23.333 -18 -42 -24c22 -6 38.333 -14 49 -24c16 -16 24 -35 24 -57c0 -25.333 -8.5 -46.166 -25.5 -62.499s-37.833 -24.5 -62.5 -24.5c-18.667 0 -35.167 5.5 -49.5 16.5s-24.166 25.833 -29.499 44.5l-1 6l14 4l1 -6
c4 -16 11.667 -28.5 23 -37.5s25.333 -13.5 42 -13.5c20.667 0 38.167 6.83301 52.5 20.5s21.5 31.167 21.5 52.5c0 18 -6.33301 33.333 -19 46s-32.667 22 -60 28z" />
    <glyph glyph-name="uni0438" unicode="&#x438;" horiz-adv-x="276" 
d="M245 0h-14v254l-202 -257v295h14v-256l202 259v-295z" />
    <glyph glyph-name="uni0439" unicode="&#x439;" horiz-adv-x="276" 
d="M245 0h-14v254l-202 -268v306h14v-265l202 268v-295zM114 299c-10 2.66699 -18.667 8.33398 -26 17.001c-2.66699 3.33301 -5.66699 9 -9 17l14 2c2 -6 3.66699 -10 5 -12c3.33301 -5.33301 8.33301 -8.66602 15 -9.99902h49c6.66699 1.33301 12 4.66602 16 9.99902
c1.33301 2 3 6 5 12l14 -2c-3.33301 -8 -6.33301 -13.667 -9 -17c-7.33301 -8.66699 -16 -14.334 -26 -17.001v-1h-6h-3h-39v1z" />
    <glyph glyph-name="uni043A" unicode="&#x43a;" horiz-adv-x="234" 
d="M203 8l-10 -10l-147 133v-131h-14v293h14v-146l144 148l10 -10l-142 -146z" />
    <glyph glyph-name="uni043B" unicode="&#x43b;" horiz-adv-x="255" 
d="M75 292h157.999v-292h-14v278h-130v-200c0 -20.667 -7.16699 -38.5 -21.5 -53.5s-33.166 -22.5 -56.499 -22.5c-1.33301 9.33301 -1.33301 14 0 14c20.667 0 36.5 5.83301 47.5 17.5s16.5 26.5 16.5 44.5v214z" />
    <glyph glyph-name="uni043C" unicode="&#x43c;" horiz-adv-x="400" 
d="M349 -4l-66 270l-73 -213c0 -2.66699 -2.33301 -3.66699 -7 -3c-4 0.666992 -6 2 -6 4l-67 213l-76 -271l-16 6l84 295c0 2.66699 2.33301 3.66699 7 3c4 -0.666992 6 -2 6 -4l70 -212l73 213c0 1.33301 1.66699 2.33301 5 3c5.33301 0.666992 8 -0.333008 8 -3l72 -295z
" />
    <glyph glyph-name="uni043D" unicode="&#x43d;" horiz-adv-x="239" 
d="M32 293h14v-133h149v133h14v-293h-14v146h-149v-146h-14v293z" />
    <glyph glyph-name="uni043E" unicode="&#x43e;" horiz-adv-x="381" 
d="M196 314c50.667 0 90.667 -16.333 120 -49c26.667 -30 40 -66.667 40 -110c0 -44.667 -13.667 -82.334 -41 -113.001c-30 -34 -71 -51 -123 -51c-50.667 0 -90.667 16.333 -120 49c-26.667 30 -40 66.667 -40 110c0 44.667 13.667 82.334 41 113.001c30 34 71 51 123 51z
M196 300c-46.667 0 -84 -15.667 -112 -47c-24.667 -28 -37 -62.333 -37 -103c0 -39.333 12 -72.666 36 -99.999c26.667 -30 63 -45 109 -45c46.667 0 84 15.667 112 47c24.667 28 37 62.333 37 103c0 39.333 -12 72.666 -36 99.999c-26.667 30 -63 45 -109 45z" />
    <glyph glyph-name="uni043F" unicode="&#x43f;" horiz-adv-x="239" 
d="M32 292h177v-292h-14v278h-149v-278h-14v292z" />
    <glyph glyph-name="uni0440" unicode="&#x440;" 
d="M195 -21c-37.333 0 -68.668 8.83301 -94.001 26.5s-44.333 41.167 -57 70.5v-202h-14v418h14v-81c12 28 29.667 50 53 66c26 18 57.667 27 95 27c52 0 93 -17 123 -51c27.333 -30.667 41 -68.667 41 -114c0 -43.333 -13.333 -80 -40 -110
c-29.333 -33.333 -69.666 -50 -120.999 -50zM194.998 -7c46.667 0 82.834 14.5 108.501 43.5s38.5 63.5 38.5 103.5c0 40.667 -12.333 75 -37 103c-28 31.333 -65.667 47 -113 47c-46.667 0 -82.834 -14.5 -108.501 -43.5s-38.5 -63.5 -38.5 -103.5
c0 -40.667 12.333 -75 37 -103c28 -31.333 65.667 -47 113 -47z" />
    <glyph glyph-name="uni0441" unicode="&#x441;" horiz-adv-x="336" 
d="M309 41l-5 -3.99902c-31.333 -30.667 -68.666 -46 -111.999 -46c-44 0 -82 15.667 -114 47s-48 69 -48 113c0 44.667 16 83 48 115s70.333 48 115 48c16 0 31.667 -2.33301 47 -7s32.666 -14.334 51.999 -29.001l5 -4l-8 -12l-5 4c-12 10 -25.667 18.167 -41 24.5
s-32 9.5 -50 9.5c-40.667 0 -75.667 -14.667 -105 -44s-44 -64.333 -44 -105c0 -40 14.667 -74.333 44 -103s64 -43 104 -43c39.333 0 73.333 14 102 42l5 4z" />
    <glyph glyph-name="uni0442" unicode="&#x442;" horiz-adv-x="186" 
d="M32 292h124v-14h-55v-278h-14v278h-55v14z" />
    <glyph glyph-name="uni0443" unicode="&#x443;" horiz-adv-x="293" 
d="M267 289l-163 -417l-14 6l48 122l-109 290l14 4l103 -274l107 275z" />
    <glyph glyph-name="uni0444" unicode="&#x444;" horiz-adv-x="664" 
d="M503 -21c-37.333 0 -68.666 8.83301 -93.999 26.5s-44.333 41.167 -57 70.5v-202h-14v126h-1v61c-12 -25.333 -30.167 -46 -54.5 -62s-53.833 -24 -88.5 -24c-51.333 0 -92.333 17 -123 51c-27.333 30.667 -41 68.334 -41 113.001c0 43.333 13 79.666 39 108.999
c29.333 33.333 69.666 50 120.999 50c36 0 66.167 -8 90.5 -24s43.166 -37.667 56.499 -65v245h15v-243c12 28 29.667 50 53 66c26 18 57.667 27 95 27c52 0 93 -17 123 -51c27.333 -30.667 41 -68.667 41 -114c0 -43.333 -13.333 -80 -40 -110
c-29.333 -33.333 -69.666 -50 -120.999 -50zM503 -7c46.667 0 82.834 14.5 108.501 43.5s38.5 63.5 38.5 103.5c0 40.667 -12.333 75 -37 103c-28 31.333 -65.667 47 -113 47c-46.667 0 -82.834 -14.5 -108.501 -43.5s-38.5 -63.5 -38.5 -103.5
c0 -40.667 12.333 -75 37 -103c28 -31.333 65.667 -47 113 -47zM338 131c0 52 -16.333 91.667 -49 119c-27.333 22.667 -60.333 34 -99 34c-46 0 -82.333 -15 -109 -45c-24 -27.333 -36 -61 -36 -101s12.333 -74 37 -102c28 -31.333 65.333 -47 112 -47
c43.333 0 78 13.333 104 40c24.667 25.333 38 56.333 40 93v9z" />
    <glyph glyph-name="uni0445" unicode="&#x445;" horiz-adv-x="291" 
d="M266 5l-12 -8l-108 157l-106 -157l-12 8l109 162l-80 118l12 8l77 -113l76 113l12 -8l-79 -118z" />
    <glyph glyph-name="uni0446" unicode="&#x446;" horiz-adv-x="241" 
d="M32 292h14v-278h149v278h14v-278h17v-55h-15v41h-179v292z" />
    <glyph glyph-name="uni0447" unicode="&#x447;" horiz-adv-x="276" 
d="M29 292h14.001v-108c0 -16.667 9.33301 -33.667 28 -51c20.667 -19.333 44 -29 70 -29c29.333 0 53 11.667 71 35c6 7.33301 12.333 19.333 19 36v117h14v-292h-14v141c-8.66699 -14 -19.334 -25.333 -32.001 -34c-16.667 -11.333 -36 -17 -58 -17
c-30 0 -56.167 10.333 -78.5 31s-33.5 41.667 -33.5 63v108z" />
    <glyph glyph-name="uni0448" unicode="&#x448;" horiz-adv-x="301" 
d="M146 292h14v-278h100v278h14v-292h-242v292h14v-278h100v278z" />
    <glyph glyph-name="uni0449" unicode="&#x449;" horiz-adv-x="325" 
d="M146 292h14v-278h100v278h14v-278h17v-55h-15v41l-2 1v-1h-242v292h14v-278h100v278z" />
    <glyph glyph-name="uni044A" unicode="&#x44a;" horiz-adv-x="196" 
d="M3 292l44.999 -0.000976562v1h2v-111c10 0 19 -0.333008 27 -1c10 0 29.333 -4 58 -12s45.334 -32 50.001 -72v-7c0 -25.333 -8.66699 -48.666 -26 -69.999c-16.667 -16 -57.667 -22.667 -123 -20v280h-33v12zM169.999 88.999l1 1v7c0 18 -7.33301 35 -22 51
c-8 7.33301 -20.667 12.5 -38 15.5s-37.666 4.5 -60.999 4.5v-158c21.333 0 41.166 1.33301 59.499 4s31.5 8 39.5 16c14.667 16 22 33 22 51v7z" />
    <glyph glyph-name="uni044B" unicode="&#x44b;" horiz-adv-x="231" 
d="M149 30c14.667 18.667 22 38.667 22 60v7c0 21.333 -9.33301 38.5 -28 51.5s-49.667 19.5 -93 19.5v-153c52 -3.33301 85 1.66699 99 15zM50 182c10 0 18.999 -0.334961 26.999 -1.00195c10 0 19.667 -1.33301 29 -4s18.333 -6 27 -10s17.334 -9 26.001 -15
c17.333 -11.333 26 -29.666 26 -54.999v-7c0 -25.333 -8.66699 -48.666 -26 -69.999c-16.667 -16 -57.667 -22.667 -123 -20v292h12v1h2v-111zM209.999 -0.00195312h-14v292h14v-292z" />
    <glyph glyph-name="uni044C" unicode="&#x44c;" horiz-adv-x="196" 
d="M149 30c14.667 18.667 22 38.667 22 60v7c0 21.333 -9.33301 38.5 -28 51.5s-49.667 19.5 -93 19.5v-153c52 -3.33301 85 1.66699 99 15zM50 182c10 0 18.999 -0.334961 26.999 -1.00195c10 0 19.667 -1.33301 29 -4s18.333 -6 27 -10s17.334 -9 26.001 -15
c17.333 -11.333 26 -29.666 26 -54.999v-7c0 -25.333 -8.66699 -48.666 -26 -69.999c-16.667 -16 -57.667 -22.667 -123 -20v292h12v1h2v-111z" />
    <glyph glyph-name="uni044D" unicode="&#x44d;" horiz-adv-x="336" 
d="M40 51l5 -4.00098c28.667 -28 62.667 -42 102 -42c40 0 74.667 14.333 104 43c27.333 26.667 42 58 44 94h-178v16h178c-1.33301 37.333 -16 70 -44 98c-29.333 29.333 -64.333 44 -105 44c-18 0 -34.667 -3.16699 -50 -9.5s-29 -14.5 -41 -24.5l-5 -4l-8 12l5 4
c19.333 14.667 36.666 24.334 51.999 29.001s31 7 47 7c44.667 0 83 -16 115 -48s48 -70.333 48 -115c0 -44 -16 -81.667 -48 -113s-70 -47 -114 -47c-43.333 0 -80.666 15.333 -111.999 46l-5 4z" />
    <glyph glyph-name="uni044E" unicode="&#x44e;" horiz-adv-x="476" 
d="M294 314c50.667 0 90.667 -16.332 120 -48.999c26.667 -30 40 -66.667 40 -110c0 -44.667 -13.667 -82.334 -41 -113.001c-30 -34 -71 -51 -123 -51c-50.667 0 -90.667 16.333 -120 49c-26 28.667 -39.333 64 -40 106h-84v-146h-14v293h14v-133h84
c2 40 15.667 74.333 41 103c30 34 71 51 123 51zM294 300.001c-46.667 0 -84 -15.666 -112 -46.999c-22.667 -26 -35 -57.333 -37 -94v-13c0.666992 -38 12.667 -70 36 -96c26.667 -30 63 -45 109 -45c46.667 0 84 15.667 112 47c24.667 28 37 62.333 37 103
c0 39.333 -12 72.666 -36 99.999c-26.667 30 -63 45 -109 45z" />
    <glyph glyph-name="uni044F" unicode="&#x44f;" horiz-adv-x="196" 
d="M171 107l-6.99902 0.00195312l-123 -110l-10 10l113 101c-10 0 -19.667 1.33301 -29 4s-18.333 6 -27 10s-17.334 9 -26.001 15c-17.333 11.333 -26 29.666 -26 54.999v7c0 27.333 8.66699 51.666 26 72.999c12 18 53 24.667 123 20v-292h-12v-1h-2v108zM169.001 121.002
l1.99902 -0.00292969v157c-55.333 2.66699 -88.333 -2.66602 -99 -15.999c-14.667 -18.667 -22 -39.667 -22 -63v-7c0 -21.333 9.33301 -38.666 28 -51.999c16.667 -11.333 43.334 -17.666 80.001 -18.999h11z" />
    <glyph glyph-name="uni0451" unicode="&#x451;" horiz-adv-x="383" 
d="M354 150c0 -4.66699 -2.33008 -7 -6.99707 -7h-301c0 -40 14.667 -74.333 44 -103s64 -43 104 -43c62 0 106.333 28.667 133 86l2 6l12 -6l-2 -6c-12.667 -30 -31.834 -53.167 -57.501 -69.5s-54.834 -24.5 -87.501 -24.5c-44.667 0 -82.834 16.167 -114.501 48.5
s-47.5 71.5 -47.5 117.5c0 44 16 81.333 48 112s70 46 114 46s81.667 -15.333 113 -46s47 -67.667 47 -111zM340.003 156c0 38 -14.667 70.333 -44 97s-63.333 40 -102 40c-39.333 0 -73.833 -13.333 -103.5 -40s-44.5 -59 -44.5 -97h294zM219.003 339h-14v38h14v-38z
M172.003 339h-14v38h14v-38z" />
    <glyph glyph-name="uni0454" unicode="&#x454;" horiz-adv-x="336" 
d="M309 41l-5 -3.99902c-31.333 -30.667 -68.666 -46 -111.999 -46c-44 0 -82 15.667 -114 47s-48 69 -48 113c0 44.667 16 83 48 115s70.333 48 115 48c16 0 31.667 -2.33301 47 -7s32.666 -14.334 51.999 -29.001l5 -4l-8 -12l-5 4c-12 10 -25.667 18.167 -41 24.5
s-32 9.5 -50 9.5c-40.667 0 -75.667 -14.667 -105 -44c-28 -28 -42.667 -60.667 -44 -98h178v-16h-178c2 -36 16.667 -67.333 44 -94c29.333 -28.667 64 -43 104 -43c39.333 0 73.333 14 102 42l5 4z" />
    <glyph glyph-name="endash" unicode="&#x2013;" horiz-adv-x="312" 
d="M283 158h-253v14h253v-14z" />
    <glyph glyph-name="emdash" unicode="&#x2014;" horiz-adv-x="467" 
d="M436 158h-408v14h408v-14z" />
    <glyph glyph-name="quoteleft" unicode="&#x2018;" horiz-adv-x="80" 
d="M57 473l-16 -44v-12h-14v14l16 46z" />
    <glyph glyph-name="quoteright" unicode="&#x2019;" horiz-adv-x="84" 
d="M37 417l-14 4l16 44v12h14v-14z" />
    <glyph glyph-name="quotesinglbase" unicode="&#x201a;" horiz-adv-x="84" 
d="M37 -36l-14 4l16 44v12h14v-14z" />
    <glyph glyph-name="quotedblleft" unicode="&#x201c;" horiz-adv-x="128" 
d="M101 473l-16 -44v-12h-14v14l16 46zM57 473l-16 -44v-12h-14v14l16 46z" />
    <glyph glyph-name="quotedblright" unicode="&#x201d;" horiz-adv-x="128" 
d="M81 417l-14 4l16 44v12h14v-14zM37 417l-14 4l16 44v12h14v-14z" />
    <glyph glyph-name="quotedblbase" unicode="&#x201e;" horiz-adv-x="128" 
d="M81 -36l-14 4l16 44v12h14v-14zM37 -36l-14 4l16 44v12h14v-14z" />
    <glyph glyph-name="dagger" unicode="&#x2020;" horiz-adv-x="238" 
d="M202 280c-1.33301 -10.667 -5.66504 -15.9941 -12.998 -15.9941c-9.33301 0 -14 4.33301 -14 13c0 7.33301 3.66699 11.666 11 12.999l-6 6l-7 2h-49c-0.666992 -8.66699 0.333008 -16.834 3 -24.501s8 -13.834 16 -18.501l-18 -327h-7l-21 329
c6.66699 3.33301 11.5 9 14.5 17s4.16699 16 3.5 24h-47c-8 0 -15.5 3.16699 -22.5 9.5s-9.16699 13.5 -6.5 21.5s7.66699 12 15 12c8 0 12 -4.33301 12 -13c0 -2 -1.33301 -4.33301 -4 -7c-2 -2 -4.33301 -3.33301 -7 -4l-7 -2l9 -7c5.33301 -2.66699 9.66602 -4 12.999 -4
h45v12c0 5.33301 -1.83301 12.333 -5.5 21s-5.5 15.334 -5.5 20.001c0 5.33301 2 12.666 6 21.999s5.66699 16.666 5 21.999c0 4 -1.83301 9 -5.5 15s-5.83398 10.667 -6.50098 14s0.666016 6.83301 3.99902 10.5s5 5.83398 5 6.50098l7 20l5 -21
c2.66699 -5.33301 5.33398 -10.333 8.00098 -15c0 -4.66699 -1.5 -10 -4.5 -16s-4.5 -10.667 -4.5 -14c0 -6 1.5 -13.833 4.5 -23.5s4.5 -16.5 4.5 -20.5c0 -4.66699 -1.33301 -11.334 -4 -20.001s-4 -15.334 -4 -20.001v-13h50c6.66699 0 13 -2.33301 19 -7
s9 -10.334 9 -17.001z" />
    <glyph glyph-name="bullet" unicode="&#x2022;" horiz-adv-x="92" 
d="M46 258c-8 0 -14.167 2.5 -18.5 7.5s-6.5 11.167 -6.5 18.5c0 16.667 8.33301 25 25 25c8 0 14.167 -2.5 18.5 -7.5s6.5 -11.167 6.5 -18.5c0 -16.667 -8.33301 -25 -25 -25z" />
    <glyph glyph-name="ellipsis" unicode="&#x2026;" horiz-adv-x="174" 
d="M145 0h-14v21h14v-21zM91 0h-14v21h14v-21zM39 0h-14v21h14v-21z" />
    <glyph glyph-name="trademark" unicode="&#x2122;" horiz-adv-x="460" 
d="M426 253h-21v199l-75 -198h-19l-72 199v-200h-22v224h34l71 -197l72 197h32v-224zM200 458h-70v-206h-22v207h-70v18h162v-19z" />
    <glyph glyph-name="partialdiff" unicode="&#x2202;" horiz-adv-x="352" 
d="M316 256c0 -62.667 -13.0029 -118.999 -39.0029 -168.999c-29.333 -56.667 -66.666 -85 -111.999 -85h-10c-37.333 3.33301 -66.166 16.166 -86.499 38.499s-30.5 50.5 -30.5 84.5c0 36.667 12 68.667 36 96s53.667 41 89 41c15.333 0 28.5 -2.16699 39.5 -6.5
s24.167 -11.833 39.5 -22.5l19 -14l5 32c2 12 3 24.667 3 38c0 42 -8.66699 77.667 -26 107c-20 34 -47.333 51 -82 51c-10 0 -20.833 -2 -32.5 -6s-21.167 -7 -28.5 -9l-12 -4l-23 30l26 7c18.667 6 38.334 9 59.001 9c50.667 0 91.667 -23 123 -69
c28.667 -41.333 43 -91 43 -149zM255.997 196.001l-17 15.999c-11.333 11.333 -25 19 -41 23c-6.66699 1.33301 -11.667 2 -15 2c-20 0 -38.333 -9 -55 -27c-14 -15.333 -24.667 -35.666 -32 -60.999c-2 -5.33301 -3.33301 -11.333 -4 -18s-1 -14 -1 -22
c0 -22 4.33301 -40.833 13 -56.5s22.334 -26.5 41.001 -32.5c6 -2 11.667 -3 17 -3c17.333 0 32.666 8.66699 45.999 26c16.667 22 29.667 57 39 105z" />
    <glyph glyph-name="Delta" unicode="&#x2206;" horiz-adv-x="478" 
d="M448 0h-409l218 459zM367 30l-135 320l-150 -320h285z" />
    <glyph glyph-name="product" unicode="&#x220f;" horiz-adv-x="565" 
d="M526 -38l-195.999 0.00195312v11l16 1c10.667 0 17.334 0.333008 20.001 1c5.33301 1.33301 10.166 4.16602 14.499 8.49902s7.16602 8.83301 8.49902 13.5s2 10 2 16v14v414h-229v-410c0 -12.667 0.833008 -22.334 2.5 -29.001s6.16699 -13 13.5 -19
c5.33301 -4 10.5 -6.33301 15.5 -7s12.167 -1 21.5 -1h12v-13h-196v14h16c8 0 14.5 0.5 19.5 1.5s10.167 3.5 15.5 7.5s8.83301 10 10.5 18s2.5 17.667 2.5 29v373c0 18 -6 32.167 -18 42.5s-22.667 15.5 -32 15.5l-11 1v13h492v-14l-14 -1c-10 0 -19.5 -3.66699 -28.5 -11
s-14.667 -15 -17 -23s-3.5 -19 -3.5 -33v-369c0 -12 0.5 -20.5 1.5 -25.5s4.83301 -10.5 11.5 -16.5c4 -4 9 -6.83301 15 -8.5s12.667 -2.5 20 -2.5l15 -1v-10z" />
    <glyph glyph-name="radical" unicode="&#x221a;" horiz-adv-x="350" 
d="M324 514l-86 -536.999c0 -2.66699 -2 -4.33398 -6 -5.00098c-4.66699 -0.666992 -7 0.333008 -7 3l-139 274l-54 -27l-6 12l60 30l9 -3l132 -261l83 516z" />
    <glyph glyph-name="infinity" unicode="&#x221e;" horiz-adv-x="530" 
d="M496 162c0 -30 -9.33203 -54.333 -27.999 -73s-41 -28 -67 -28c-16.667 0 -34.334 3.83301 -53.001 11.5s-36 19.167 -52 34.5l-30 27l-30 -27c-14.667 -14 -31.667 -25.167 -51 -33.5s-37.333 -12.5 -54 -12.5c-24.667 0 -46.667 9.33301 -66 28s-29 43 -29 73
c0 25.333 9.66699 47 29 65s42 27 68 27c32.667 0 64.667 -14.667 96 -44l37 -33l37 33c32.667 29.333 64.667 44 96 44c26 0 48.667 -9 68 -27s29 -39.667 29 -65zM462.001 159c-1.33301 18 -8 32.499 -20 43.499s-27 16.5 -45 16.5c-12 0 -23.667 -2.66699 -35 -8
c-6.66699 -3.33301 -17 -10 -31 -20l-44 -34l41 -38c19.333 -17.333 42 -26 68 -26c20 0 36 6.33301 48 19s18 28.334 18 47.001zM245.001 156.999l-44.0029 34c-11.333 8.66699 -19 14 -23 16c-13.333 8 -27.666 12 -42.999 12c-17.333 0 -32.166 -5.66699 -44.499 -17
s-19.166 -25.666 -20.499 -42.999c0 -18.667 6 -34.334 18 -47.001s28 -19 48 -19c26 0 48.667 8.66699 68 26z" />
    <glyph glyph-name="integral" unicode="&#x222b;" horiz-adv-x="227" 
d="M188 500c-2 -15.333 -10.9961 -23.001 -26.9961 -23.001c-4 0 -8 1.33301 -12 4c-6.66699 4.66699 -10.667 7.33398 -12 8.00098c-5.33301 2 -9 0.5 -11 -4.5s-3 -13.5 -3 -25.5c0 -10.667 1.33301 -30.667 4 -60s4 -50.333 4 -63v-195c0 -48 -3 -87 -9 -117
c-10 -50 -28 -75 -54 -75c-2.66699 0 -7.33398 0.666992 -14.001 2c-16 4 -24 13.667 -24 29c1.33301 6 4.16602 11.333 8.49902 16s9.5 7 15.5 7c4.66699 0 9 -2.66699 13 -8s8 -8.66602 12 -9.99902c6.66699 -2 11.5 2.33301 14.5 13s4.5 25.334 4.5 44.001
c0 7.33301 -0.333008 19.166 -1 35.499s-1 28.166 -1 35.499v270c0 42 3 74 9 96c9.33301 33.333 25.333 50 48 50c9.33301 0 17.666 -2.66699 24.999 -8s10.666 -12.333 9.99902 -21z" />
    <glyph glyph-name="approxequal" unicode="&#x2248;" horiz-adv-x="421" 
d="M393 258l-16.001 -18.001c-18 -18.667 -39.667 -28 -65 -28c-12 0 -22.833 1.5 -32.5 4.5l-29.5 9.5l-49 15c-10.667 3.33301 -20.167 5.83301 -28.5 7.5s-16.5 2.5 -24.5 2.5c-3.33301 0 -9.66602 -0.666992 -18.999 -2c-27.333 -4 -52.333 -17.333 -75 -40l-13 -15
l-10 10l13 15c22.667 24.667 50.334 39.334 83.001 44.001c12 1.33301 20 2 24 2c10 0 17.5 -0.5 22.5 -1.5s15.5 -3.83301 31.5 -8.5l49 -15l29.5 -9.5c9.66699 -3 19.167 -4.5 28.5 -4.5c21.333 0 39.666 8 54.999 24l16 18zM392.999 148.999l-15.998 -18
c-17.333 -18 -39 -27 -65 -27c-12 0 -23.5 1.5 -34.5 4.5s-20.167 5.83301 -27.5 8.5l-49 15c-12 3.33301 -22 5.83301 -30 7.5s-16.333 2.5 -25 2.5c-7.33301 0 -13 -0.333008 -17 -1c-28.667 -5.33301 -53.667 -19 -75 -41l-13 -15l-10 10l13 15c21.333 24 49 39 83 45
c5.33301 0.666992 12.333 1 21 1c9.33301 0 16.666 -0.333008 21.999 -1s17 -3.66699 35 -9l49 -15c2.66699 -0.666992 10.167 -3 22.5 -7s24.166 -6 35.499 -6c22 0 40.333 7.66699 55 23l16 18z" />
    <glyph glyph-name="notequal" unicode="&#x2260;" horiz-adv-x="278" 
d="M252 123h-139l-39 -71l-12 6l36 65h-68v14h76l32 58h-108v14h116l42 74l12 -6l-39 -68h91v-14h-99l-32 -58h131v-14z" />
    <glyph glyph-name="lessequal" unicode="&#x2264;" horiz-adv-x="386" 
d="M357 53l-6 -12l-318 147l-4 6v34l4 6l317 143l6 -12l-313 -141v-26zM354 0h-324v14h324v-14z" />
    <glyph glyph-name="greaterequal" unicode="&#x2265;" horiz-adv-x="381" 
d="M353 194l-4 -6l-318 -147l-6 12l314 145v26l-313 141l6 12l317 -143l4 -6v-34zM352 0h-324v14h324v-14z" />
    <glyph glyph-name="lozenge" unicode="&#x25ca;" horiz-adv-x="345" 
d="M317 222l-117 -227l-6 -4h-38l-6 4l-119 230v6l119 228l6 4h38l6 -4l117 -231v-6zM304 225l-114 224h-30l-116 -221l116 -223h30z" />
    <glyph glyph-name="uniEA00" unicode="&#xea00;" horiz-adv-x="274" 
d="M243 0l-0.000976562 58.002l-9 -15c-14.667 -16.667 -25.667 -27 -33 -31c-23.333 -14 -41 -21 -53 -21c0 -1.33301 -4 -2 -12 -2c-16 0 -32.333 2 -49 6c-18 8 -32.333 17 -43 27c-10 11.333 -17.667 22.666 -23 33.999c-4.66699 8.66699 -7 13.667 -7 15
c-2 0 -3.33301 11.333 -4 34c0 29.333 12 56.333 36 81c20.667 18 43 28 67 30h19c20 0 42.333 -8.33301 67 -25l-4 -13h-2c-2 0 -11 4.66699 -27 14c-10 4.66699 -19.667 7 -29 7c0 1.33301 0.333008 2 1 2h-24c-17.333 -3.33301 -31.333 -8.33301 -42 -15
c-18 -14 -30.333 -29.667 -37 -47c-4 -9.33301 -6 -17.333 -6 -24h-1c-0.666992 -6 -1 -9.33301 -1 -10c0 -25.333 8.66699 -48 26 -68c2.66699 -3.33301 7.66699 -7.33301 15 -12c0 -2 6.66699 -6 20 -12c12 -5.33301 23.667 -8 35 -8h11c26 0 51.333 12 76 36
c3.33301 2.66699 7 7.66699 11 15c13.333 17.333 20 42.333 20 75c0 2.66699 0.333008 4.33398 1 5.00098c-0.666992 5.33301 -1 9.66602 -1 12.999v28c0 32.667 -5.66699 56 -17 70c-5.33301 10 -14 19.333 -26 28c-7.33301 5.33301 -15.666 9.66602 -24.999 12.999l-21 4
c-30.667 0 -54.667 -8.33301 -72 -25c-1.33301 0 -9.33301 -7.66699 -24 -23l-12 8v2c15.333 21.333 37.333 37.333 66 48c5.33301 1.33301 16.333 3 33 5c14 0 31 -3.33301 51 -10c1.33301 -2 6.33301 -5.33301 15 -10c20 -17.333 30 -27.333 30 -30
c2 0 6.66699 -10.333 14 -31c3.33301 -16.667 5 -26.667 5 -30v-196h-15z" />
    <glyph glyph-name="uniEA01" unicode="&#xea01;" horiz-adv-x="381" 
d="M312 32c-21.333 -22 -48 -36.666 -80 -43.999c-43.333 -10.667 -84.166 -4 -122.499 20s-62.833 58.333 -73.5 103c-10.667 42.667 -4.16699 82.667 19.5 120s57.167 61.333 100.5 72c42.667 10 82.834 3.83301 120.501 -18.5s61.5 -54.5 71.5 -96.5
c1.33301 -4.66699 -0.333984 -7.33398 -5.00098 -8.00098l-292 -72c9.33301 -38.667 31.666 -68.5 66.999 -89.5s72.333 -26.833 111 -17.5c40 10 69.333 30.667 88 62l15 -4c-6 -10 -12.667 -19 -20 -27zM333 191.001c-8.66699 36.667 -30.499 64.5 -65.499 83.5
s-71.167 23.833 -108.5 14.5c-38 -9.33301 -68.333 -30.5 -91 -63.5s-29.334 -67.833 -20.001 -104.5z" />
    <glyph glyph-name="uniEA02" unicode="&#xea02;" horiz-adv-x="173" 
d="M96 434c-6.66699 -4.66699 -11.3311 -10.167 -13.998 -16.5s-4 -13.833 -4 -22.5v-103h64v-14h-64v-278h-14v278h-34v14h34v103c0 10 1.66699 19.167 5 27.5s10 15.833 20 22.5c9.33301 5.33301 21.666 8 36.999 8s29.666 -6.66699 42.999 -20c14 -15.333 21 -33 21 -53
h-14c0 17.333 -5.33301 32 -16 44c-10.667 10.667 -22.5 16 -35.5 16s-22.5 -2 -28.5 -6z" />
    <glyph glyph-name="uniEA03" unicode="&#xea03;" horiz-adv-x="234" 
d="M46 0h-14v454h14v-454zM190 295l10 -9.99902l-121 -124h21c40 0 69.333 -15.333 88 -46c13.333 -22 20 -47.667 20 -77v-38h-14v38c0 27.333 -6 50.666 -18 69.999c-16 26 -41.333 39 -76 39h-34l-15 -1z" />
    <glyph glyph-name="uniEA04" unicode="&#xea04;" horiz-adv-x="181" 
d="M141 295l1.99805 -0.998047v-1c2.66699 -2 5.33398 -4.33301 8.00098 -7c14 -15.333 21 -33 21 -53h-14c0 17.333 -5.33301 32 -16 44c-18 10 -30 15 -36 15c-22 0 -39 -11.333 -51 -34c-3.33301 -6.66699 -6.66602 -18.334 -9.99902 -35.001v-223h-14v292h14v-26
c6.66699 12 14 21 22 27c11.333 8.66699 24.333 13 39 13c5.33301 0 11 -1 17 -3c1.33301 -0.666992 7.33301 -3.33398 18 -8.00098z" />
    <glyph glyph-name="uniEA05" unicode="&#xea05;" horiz-adv-x="118" 
d="M60 287c-16 -8 -27.001 -20.3301 -33.001 -36.9971c-5.33301 -15.333 -4.66602 -30.666 2.00098 -45.999s19 -29.333 37 -42s31 -28 39 -46c10 -19.333 11 -39.333 3 -60c-7.33301 -24.667 -22 -41.667 -44 -51c-12 -6 -24 -9 -36 -9l-8 15
c13.333 -0.666992 26 1.66602 38 6.99902c17.333 8 30 22 38 42c5.33301 16.667 4.33301 33.167 -3 49.5s-19.833 30.666 -37.5 42.999s-30.667 27.666 -39 45.999s-9.16602 37.166 -2.49902 56.499c7.33301 20 20.666 34.667 39.999 44c12 6 24 8.66699 36 8l5 -14
c-11.333 1.33301 -23 -0.666992 -35 -6z" />
    <glyph glyph-name="uniEA06" unicode="&#xea06;" horiz-adv-x="280" 
d="M233 46c-2 -4 -4.00098 -7.66699 -6.00098 -11c-18.667 -30.667 -48 -46 -88 -46c-31.333 0 -57.166 11.833 -77.499 35.5s-30.5 52.834 -30.5 87.501v180h14v-180c0 -32 8.5 -58.167 25.5 -78.5s39.833 -30.5 68.5 -30.5c34.667 0 60 13 76 39
c12 19.333 18 42.666 18 69.999v180h14v-292h-14v46z" />
    <glyph glyph-name="uniEA07" unicode="&#xea07;" horiz-adv-x="280" 
d="M35 76c-2.66699 11.333 -4.00195 23.335 -4.00195 36.002v180h14v-180c0 -11.333 1 -22 3 -32c4 -18 11.667 -33.333 23 -46c16.667 -20.667 39.334 -31 68.001 -31c34.667 0 60 13 76 39c12 19.333 18 42.666 18 69.999v180h14v-306c0 -29.333 -6.66699 -55 -20 -77
c-18.667 -30.667 -48 -46 -88 -46c-31.333 0 -57 12 -77 36c-13.333 14.667 -22.333 31.667 -27 51l13 4c4 -18 11.667 -33.333 23 -46c16.667 -20.667 39.334 -31 68.001 -31c34.667 0 60 13 76 39c12 19.333 18 42.666 18 69.999v60c-2 -4 -4 -7.66699 -6 -11
c-18.667 -30.667 -48 -46 -88 -46c-31.333 0 -57 12 -77 36c-13.333 14.667 -22.333 31.667 -27 51z" />
    <glyph glyph-name="uniEA08" unicode="&#xea08;" horiz-adv-x="273" 
d="M214 254c-15.333 -18.667 -35.667 -32.002 -61 -40.002c20.667 -7.33301 38 -21.666 52 -42.999s21 -43.666 21 -66.999c0 -29.333 -11 -54 -33 -74s-46.333 -30 -73 -30h-85c-4.66699 -0 -7 2.33301 -7 7v443c0 4.66699 2.33301 7 7 7h77
c36.667 0 67.5 -10.333 92.5 -31s37.5 -50 37.5 -88c0 -33.333 -9.33301 -61.333 -28 -84zM181.999 175.998c-20 21.333 -43 31.999 -69 31.999h-71v-194h78c22.667 0 43.667 8.83301 63 26.5s29 38.834 29 63.501c0 26.667 -10 50.667 -30 72zM116.999 221.997
c21.333 0 42.333 6.66602 63 19.999c32 20.667 48 52.667 48 96c0 34.667 -10.833 60.834 -32.5 78.501s-49.5 26.5 -83.5 26.5h-70v-221h71h4z" />
    <glyph glyph-name="uniEA09" unicode="&#xea09;" horiz-adv-x="531" 
d="M504 2l-14 -2l-83 434l-135 -432c0 -3.33301 -2.66699 -4.33301 -8 -3c-2.66699 0.666992 -4 1.66699 -4 3l-141 432l-75 -434l-14 2l79 457c0 2.66699 2 4.33398 6 5.00098c4.66699 0.666992 7 -0.333008 7 -3l144 -439l138 439c0 2.66699 2 3.66699 6 3
c4.66699 -0.666992 7 -2.33398 7 -5.00098z" />
    <glyph glyph-name="uniEA0A" unicode="&#xea0a;" horiz-adv-x="445" 
d="M338 199c12.667 -12 17.999 -28 15.999 -48c0 -44 -15.667 -82 -47 -114s-69 -48 -113 -48h-3c-44 0 -81.667 16 -113 48s-47 70 -47 114c0 13.333 1.66699 26.333 5 39c4.66699 18.667 13.334 36.334 26.001 53.001c12.667 17.333 28.667 32.333 48 45
c-12.667 10.667 -22.667 23.834 -30 39.501s-11 31.167 -11 46.5c0 30 10.667 55.667 32 77s47 32 77 32c28.667 0 54.167 -9.83301 76.5 -29.5s33.5 -44.167 33.5 -73.5v-7h-14v7c0 25.333 -9.5 46.5 -28.5 63.5s-41.5 25.5 -67.5 25.5s-48.333 -9.33301 -67 -28
s-28 -41 -28 -67c0 -21.333 6.33301 -40.333 19 -57c7.33301 -9.33301 15.666 -17 24.999 -23c2 0 3 -2 3 -6c-1.33301 -4 -2.66602 -6 -3.99902 -6c-18 -12.667 -31.333 -23.667 -40 -33c-17.333 -18.667 -29 -38.334 -35 -59.001c-4 -12.667 -6 -25.667 -6 -39
c0 -23.333 5 -44.666 15 -63.999c12 -24.667 30 -44.667 54 -60c22.667 -16 49 -24 79 -24h1c40 0 74.333 14.667 103 44c12 12 21.333 25.333 28 40c10 19.333 15 40.666 15 63.999c0.666992 18 -4.66602 33.667 -15.999 47c-35.333 -1.33301 -69.666 -5 -102.999 -11
c-15.333 -4.66699 -24.666 -8.66699 -27.999 -12c-12 -12 -11.667 -33 1 -63l-12 -4c-14.667 28.667 -16.334 52.334 -5.00098 71.001c6.66699 12 16.667 18 30 18c0 4.66699 38.333 10 115 16c40 0 60 2 60 6v1c10 7.33301 13 23.666 9 48.999c0 2.66699 2.33301 5 7 7
c4 0 6.66699 -1 8 -3s1.16602 -10.833 -0.500977 -26.5s-8.83398 -29.834 -21.501 -42.501c0 -0.666992 -1.66699 -2 -5 -4c-14 0 -27.667 -0.333008 -41 -1z" />
    <glyph glyph-name="CR.001" horiz-adv-x="168" 
 />
    <glyph glyph-name="uni0437.001" horiz-adv-x="196" 
d="M171 90v6.99805c0 21.333 -9.33301 38.333 -28 51c-17.333 12 -44.333 18.667 -81 20v14c5.33301 -0.666992 10.333 -1 15 -1c16.667 0.666992 30 4.66699 40 12c14 9.33301 20 21.333 18 36v5c0 14.667 -5.33301 26 -16 34c-9.33301 6.66699 -28.333 10.667 -57 12v13
c32 -1.33301 54.667 -7 68 -17c14.667 -10.667 22 -24.667 22 -42v-5c0 -17.333 -8 -31.666 -24 -42.999c-5.33301 -4 -12 -7.33301 -20 -10c16.667 -4 33.667 -11.833 51 -23.5s26 -30.167 26 -55.5v-7c0 -25.333 -10.667 -49.666 -32 -72.999
c-10.667 -11.333 -41 -17 -91 -17v14c72 -3.33301 108.667 21 110 73z" />
    <glyph glyph-name="n.001" horiz-adv-x="276" 
d="M245 0h-14.001v207c0 16.667 -9.33301 33.667 -28 51c-20.667 19.333 -44 29 -70 29c-29.333 0 -53 -11.667 -71 -35c-6 -7.33301 -12.333 -19.333 -19 -36v-216h-14v292h14v-42c8.66699 14 19.334 25.333 32.001 34c16.667 11.333 36 17 58 17
c30 0 56.167 -10.333 78.5 -31s33.5 -41.667 33.5 -63v-207z" />
    </font>
</defs>
</svg>
